<?xml version="1.0" standalone="no"?>
<!DOCTYPE svg PUBLIC "-//W3C//DTD SVG 1.1//EN" "http://www.w3.org/Graphics/SVG/1.1/DTD/svg11.dtd"><svg xmlns="http://www.w3.org/2000/svg" style="background-color:#FFF" width="1957.387" height="1333.333"><path stroke="black" fill="none" stroke-width="1" d="M1188.58, 584.45L1188.34, 585.15L1187.36, 583.08L1185.99, 581.05L1184.32, 579.1L1182.42, 577.24L1178.32, 573.89L1176.29, 572.45L1174.39, 571.19L1174.2, 571.08L1169.24, 568.32L1164.01, 565.53L1158.53, 562.74L1152.8, 559.93L1146.85, 557.11L1140.69, 554.3L1127.81, 548.69L1114.29, 543.14L1100.25, 537.7L1085.82, 532.41L1071.13, 527.31L1056.29, 522.44L1041.45, 517.85L1026.72, 513.58L1012.24, 509.67L998.12, 506.17L984.5, 503.11L977.91, 501.76L971.5, 500.55L965.27, 499.46L959.25, 498.51L947.06, 496.85L934.97, 495.49L923.03, 494.39L911.3, 493.54L899.82, 492.92L888.66, 492.5L877.87, 492.26L867.51, 492.18L857.63, 492.24L848.27, 492.41L839.51, 492.67L831.4, 493.01L823.98, 493.39L817.31, 493.81L814.28, 494.02L811.46, 494.22L808.85, 494.43L806.46, 494.62L802.53, 494.9L798.87, 495.06L795.45, 495.09L792.26, 495.02L789.27, 494.85L786.48, 494.59L781.39, 493.81L776.84, 492.75L772.68, 491.49L764.94, 488.57L758.26, 486.01L754.23, 484.69L750, 483.54L745.64, 482.56L741.19, 481.76L732.23, 480.67L727.83, 480.4L723.56, 480.31L717.52, 480.52L712.04, 481.14L709.56, 481.61L707.29, 482.18L705.24, 482.87L703.44, 483.66L701.54, 484.82L700.02, 486.15L698.9, 487.65L698.18, 489.32L697.69, 491.34L697.44, 489.65L697.42, 487.81L697.66, 485.81L698.18, 483.65L698.9, 481.98L700.02, 480.48L701.54, 479.14L703.44, 477.98L705.24, 477.19L707.29, 476.51L709.56, 475.93L712.04, 475.46L717.52, 474.84L723.56, 474.64L727.83, 474.73L732.23, 475L741.18, 476.08L745.64, 476.89L750, 477.87L754.23, 479.02L758.26, 480.33L764.94, 482.89L772.68, 485.81L776.84, 487.08L781.39, 488.13L786.48, 488.91L789.27, 489.18L792.26, 489.35L795.45, 489.42L798.87, 489.38L802.53, 489.23L806.46, 488.95L808.85, 488.75L811.46, 488.55L814.28, 488.34L817.31, 488.13L823.98, 487.72L831.4, 487.34L839.51, 487L848.27, 486.74L857.62, 486.56L867.51, 486.51L877.87, 486.59L888.66, 486.82L899.82, 487.25L911.3, 487.87L923.03, 488.72L934.97, 489.81L947.06, 491.18L959.25, 492.84L965.27, 493.79L971.5, 494.87L977.91, 496.09L984.5, 497.44L998.12, 500.49L1012.24, 504L1026.72, 507.91L1041.45, 512.18L1056.29, 516.77L1071.12, 521.64L1085.82, 526.74L1100.25, 532.03L1114.29, 537.47L1127.81, 543.02L1140.69, 548.62L1146.85, 551.44L1152.8, 554.25L1158.52, 557.06L1164.01, 559.86L1169.24, 562.64L1174.2, 565.4L1174.39, 565.52L1176.89, 567.18L1179.55, 569.15L1182.21, 571.37L1184.65, 573.79L1186.7, 576.36L1188.17, 579.03L1188.62, 580.38L1188.86, 581.74L1188.85, 583.1L1188.58, 584.45"/><path stroke="black" fill="none" stroke-width="1" d="M1161.07, 603.43L1161.89, 603.4L1162.01, 603.62L1161.07, 603.43"/><path stroke="black" fill="none" stroke-width="1" d="M306.16, 720.67L306.17, 719.27L306.29, 717.41L309.77, 716.8L313.49, 715.84L317.43, 714.54L321.56, 712.94L325.86, 711.06L330.31, 708.91L334.88, 706.54L339.56, 703.95L349.13, 698.26L358.83, 692.02L368.5, 685.43L377.93, 678.7L386.96, 672L391.26, 668.74L395.39, 665.55L399.33, 662.48L403.05, 659.54L406.53, 656.75L409.75, 654.15L412.69, 651.76L415.31, 649.59L417.61, 647.69L419.56, 646.06L421.13, 644.74L422.3, 643.74L423.05, 643.1L423.36, 642.84L424.78, 641.6L426.67, 641.77L431.43, 642.2L436.62, 642.67L442.14, 643.17L447.9, 643.69L459.74, 644.75L471.36, 645.79L476.86, 646.28L482.02, 646.74L486.74, 647.15L490.93, 647.52L494.49, 647.82L497.33, 648.06L498.45, 648.15L499.35, 648.22L500.03, 648.27L500.46, 648.3L502.58, 648.56L504.71, 649.08L506.79, 649.86L508.77, 650.88L510.57, 652.1L512.14, 653.52L513.41, 655.11L514.33, 656.86L514.84, 654.98L514.83, 653.04L514.23, 650.94L513.11, 649.01L511.57, 647.28L509.68, 645.78L507.54, 644.53L505.23, 643.58L502.84, 642.93L500.46, 642.63L500.03, 642.6L499.35, 642.55L498.45, 642.48L497.33, 642.39L494.49, 642.15L490.93, 641.84L486.74, 641.48L482.02, 641.06L476.86, 640.61L471.36, 640.12L459.74, 639.08L447.9, 638.01L442.14, 637.5L436.62, 637L431.43, 636.53L426.67, 636.09L424.78, 635.92L423.36, 637.16L423.05, 637.42L422.31, 638.06L421.16, 639.04L419.61, 640.34L417.7, 641.94L415.43, 643.82L412.84, 645.96L409.94, 648.32L406.77, 650.89L403.33, 653.64L399.66, 656.54L395.77, 659.58L391.69, 662.73L387.44, 665.97L378.51, 672.6L369.17, 679.28L359.6, 685.84L349.96, 692.06L340.45, 697.77L335.79, 700.37L331.23, 702.77L326.79, 704.95L322.49, 706.87L318.35, 708.53L314.4, 709.89L310.65, 710.92L307.14, 711.62L307.55, 709.55L307.96, 707.78L308.48, 705.75L309.12, 703.44L309.85, 700.85L310.68, 697.91L311.57, 694.71L312.5, 691.25L313.45, 687.53L314.41, 683.54L315.37, 679.29L316.31, 674.77L317.2, 669.98L318.05, 664.91L318.83, 659.57L319.53, 653.95L320.12, 648.05L320.61, 641.86L320.96, 635.39L321.17, 628.63L321.22, 621.58L321.22, 621.57L321.21, 616.88L321.21, 616.83L321.21, 611.24L321.1, 605.47L320.87, 599.51L320.52, 593.38L320.03, 587.06L319.4, 580.55L318.63, 573.86L317.7, 566.98L316.62, 559.92L315.36, 552.66L313.92, 545.21L312.3, 537.57L310.49, 529.74L308.48, 521.71L306.26, 513.49L303.82, 505.07L306.5, 506.25L309.4, 507.54L312.5, 508.94L315.79, 510.44L322.9, 513.77L330.61, 517.49L338.83, 521.59L347.44, 526.04L356.33, 530.83L365.41, 535.93L374.57, 541.32L383.7, 546.99L392.69, 552.9L401.44, 559.05L409.85, 565.41L417.8, 571.96L425.2, 578.67L431.93, 585.53L433.3, 587.03L435.33, 586.98L440.32, 586.84L445.74, 586.7L451.51, 586.54L457.52, 586.38L469.88, 586.06L482, 585.74L487.72, 585.59L493.08, 585.45L497.98, 585.33L502.32, 585.22L506, 585.13L507.56, 585.1L508.92, 585.07L510.06, 585.04L510.97, 585.02L511.65, 585.01L512.07, 585.01L513.71, 584.84L515.45, 584.35L517.21, 583.55L518.93, 582.47L520.55, 581.14L522, 579.57L523.21, 577.79L524.13, 575.81L524.77, 573.03L524.72, 570.18L524.83, 567.92L524.5, 565.69L523.98, 567.3L523.32, 565.83L522.41, 564.31L521.25, 562.75L519.8, 561.16L520.26, 558.38L521.88, 560.31L523.1, 562.18L523.95, 563.98L524.5, 565.7L524.83, 563.28L524.8, 561.89L524.58, 560.39L524.13, 558.8L523.42, 557.12L522.4, 555.38L521.04, 553.59L529.17, 504.02L529.67, 503.17L530.41, 502.17L531.35, 501.23L532.47, 500.55L533, 500.39L533.73, 500.33L534.67, 500.46L535.87, 500.88L537.9, 501.81L540.43, 503.01L543.42, 504.47L546.83, 506.19L550.6, 508.14L554.7, 510.32L559.08, 512.71L563.7, 515.3L568.51, 518.08L573.47, 521.03L583.67, 527.41L593.93, 534.33L603.91, 541.7L604.74, 542.35L605.78, 542.55L605.97, 542.59L606.35, 542.64L607.67, 542.75L609.64, 542.75L612.16, 542.49L615.13, 541.85L618.45, 540.69L622.02, 538.86L623.87, 537.65L625.74, 536.23L627.51, 536.03L629.87, 535.79L632.7, 535.53L635.88, 535.28L642.76, 534.9L646.21, 534.83L649.52, 534.88L652.93, 534.83L656.82, 534.49L661.11, 533.9L665.69, 533.12L675.37, 531.15L685.15, 528.96L688.47, 528.2L691.62, 527.49L694.53, 526.86L697.13, 526.33L699.94, 525.89L702.62, 525.65L707.59, 525.5L712.21, 525.31L714.56, 524.96L716.78, 524.3L718.77, 523.24L720.43, 521.68L721.09, 520.68L721.64, 519.51L722.04, 518.17L722.29, 516.64L722.24, 513.79L722.29, 513.4L722.33, 511.3L722, 509.42L721.42, 511.11L720.67, 509.79L719.74, 508.6L717.53, 506.58L715.07, 504.93L712.64, 503.55L710.75, 502.49L709.22, 501.55L708.04, 500.67L707.18, 499.81L706.63, 498.92L706.35, 497.95L706.35, 496.86L706.59, 495.59L707.31, 496.72L708.53, 497.82L710.29, 498.98L712.64, 500.31L715.4, 501.89L718.15, 503.83L719.4, 504.99L720.48, 506.29L721.37, 507.76L722, 509.42L722.29, 507.73L722.28, 505.15L721.73, 502.91L720.74, 500.99L719.41, 499.33L717.83, 497.9L716.11, 496.67L712.64, 494.64L710.91, 493.67L712.64, 493.33L714.59, 493.05L716.75, 492.82L719.09, 492.65L724.28, 492.52L730.01, 492.7L736.12, 493.26L742.46, 494.23L748.89, 495.68L755.26, 497.65L761.64, 500.09L765.7, 501.69L769.94, 503.21L774.5, 504.6L779.52, 505.77L785.16, 506.65L788.26, 506.95L791.56, 507.16L795.09, 507.25L798.86, 507.21L802.89, 507.05L807.21, 506.75L809.56, 506.55L812.14, 506.35L814.92, 506.15L817.92, 505.94L824.5, 505.54L831.82, 505.15L839.83, 504.82L848.48, 504.56L857.71, 504.39L867.46, 504.33L877.69, 504.41L888.33, 504.65L899.34, 505.06L910.66, 505.67L922.23, 506.51L934.01, 507.59L945.93, 508.94L957.94, 510.57L963.47, 511.44L969.18, 512.43L981.06, 514.74L993.5, 517.47L1006.37, 520.6L1019.59, 524.08L1033.06, 527.89L1046.66, 531.98L1060.31, 536.32L1073.9, 540.89L1087.33, 545.64L1100.5, 550.55L1113.3, 555.57L1125.64, 560.67L1137.41, 565.82L1148.52, 570.99L1153.8, 573.57L1158.86, 576.14L1156, 575.42L1152.98, 574.83L1149.81, 574.4L1146.5, 574.17L1143.06, 574.17L1139.48, 574.44L1135.79, 575.01L1131.97, 575.92L1129.44, 576.98L1127.28, 578.56L1125.6, 580.6L1124.47, 583.01L1124.12, 584.41L1123.99, 585.85L1124.07, 587.29L1124.36, 588.71L1124.41, 588.88L1124.47, 588.68L1125.6, 586.27L1127.28, 584.23L1129.44, 582.65L1131.97, 581.6L1135.1, 580.83L1138.14, 580.29L1141.11, 579.96L1143.99, 579.82L1149.5, 580.04L1154.62, 580.8L1159.34, 581.95L1163.62, 583.33L1167.45, 584.8L1170.78, 586.19L1173.13, 587.18L1174.25, 587.62L1175.21, 587.97L1176.28, 587.03L1178.46, 589.17L1176.67, 589.99L1175.21, 591.21L1174.25, 590.86L1173.13, 590.42L1170.78, 589.43L1167.45, 588.04L1163.62, 586.57L1159.34, 585.19L1154.62, 584.04L1149.5, 583.28L1143.99, 583.06L1141.11, 583.2L1138.14, 583.53L1135.1, 584.07L1131.97, 584.84L1129.75, 585.72L1127.81, 587.01L1126.2, 588.66L1124.99, 590.62L1124.41, 588.88L1124.01, 591.09L1124.13, 593.33L1124, 595.49L1124.36, 597.62L1124.95, 599.43L1125.66, 601.09L1126.56, 602.66L1127.72, 604.18L1129.22, 605.73L1131.11, 607.36L1133.48, 609.14L1136.38, 611.11L1139.05, 612.79L1141.64, 614.27L1144.13, 615.57L1146.51, 616.7L1150.94, 618.53L1154.84, 619.87L1151.04, 621.75L1146.93, 623.74L1142.52, 625.81L1137.81, 627.97L1132.81, 630.2L1127.52, 632.5L1121.96, 634.85L1116.14, 637.24L1110.04, 639.67L1103.7, 642.12L1097.1, 644.59L1090.26, 647.06L1083.18, 649.53L1075.87, 651.99L1068.34, 654.42L1060.59, 656.82L1052.64, 659.19L1044.48, 661.49L1036.12, 663.74L1027.57, 665.92L1018.84, 668.02L1009.93, 670.02L1000.85, 671.93L991.6, 673.73L982.2, 675.42L972.65, 676.97L962.96, 678.39L953.12, 679.65L943.16, 680.77L933.07, 681.71L922.86, 682.49L912.55, 683.07L912.11, 683.09L911.34, 683.11L910.23, 683.15L908.83, 683.2L907.15, 683.26L905.21, 683.33L903.03, 683.4L900.63, 683.49L895.28, 683.68L889.33, 683.89L882.95, 684.12L876.31, 684.37L862.95, 684.87L856.57, 685.13L850.62, 685.37L845.28, 685.6L842.89, 685.71L840.72, 685.82L838.78, 685.91L837.1, 686.01L835.71, 686.09L834.61, 686.17L833.24, 686.41L831.59, 686.94L829.65, 687.77L827.39, 688.9L824.8, 690.34L821.89, 692.1L818.62, 694.17L815, 696.57L811, 699.29L806.62, 702.35L801.84, 705.74L796.65, 709.48L791.04, 713.56L784.99, 718L778.5, 722.8L771.55, 727.96L766.12, 732L760.9, 735.86L758.46, 737.65L756.18, 739.32L754.09, 740.83L752.23, 742.16L752.17, 739.57L751.85, 736.96L751.08, 734.5L750.47, 733.37L749.69, 732.33L749.38, 731.96L748.9, 731.41L748.28, 730.69L747.53, 729.8L745.68, 727.64L743.48, 725.05L740.54, 721.59L737.75, 718.31L735.09, 715.19L732.57, 712.24L730.18, 709.44L727.91, 706.8L723.75, 701.95L720.05, 697.67L716.78, 693.92L713.92, 690.66L711.43, 687.86L709.3, 685.49L707.48, 683.5L705.95, 681.88L704.69, 680.58L703.66, 679.57L702.83, 678.81L702.17, 678.27L701.66, 677.92L701.07, 677.64L700.14, 677.34L698.76, 677L696.81, 676.62L694.17, 676.19L692.57, 675.94L690.75, 675.68L688.7, 675.4L686.42, 675.1L683.87, 674.77L681.06, 674.42L677.96, 674.04L674.57, 673.64L670.86, 673.2L666.82, 672.74L662.45, 672.24L657.72, 671.71L652.62, 671.14L647.13, 670.54L641.25, 669.9L634.95, 669.22L628.23, 668.5L621.07, 667.73L613.45, 666.92L605.36, 666.07L596.79, 665.17L587.72, 664.22L581.93, 663.61L576.5, 663.04L571.53, 662.52L567.06, 662.05L563.17, 661.63L559.93, 661.28L557.4, 661L556.43, 660.88L555.66, 660.79L554.49, 660.68L552.94, 660.75L550.96, 661.09L548.5, 661.77L545.53, 662.87L543.83, 663.61L541.99, 664.47L539.99, 665.47L537.84, 666.63L535.52, 667.95L533.02, 669.44L531.04, 670.52L528.99, 671.37L526.89, 671.99L524.76, 672.39L522.62, 672.54L520.49, 672.47L518.38, 672.15L516.31, 671.59L513.76, 670.52L511.6, 669.11L513.32, 667.47L514.38, 665.65L514.85, 663.77L514.83, 661.96L514.72, 661.35L514.89, 660.04L514.83, 658.72L514.33, 656.86L513.44, 658.39L512.35, 656.98L511.01, 655.7L509.49, 654.57L507.82, 653.59L506.04, 652.79L504.19, 652.17L502.32, 651.75L500.46, 651.54L500.03, 651.52L499.35, 651.47L498.45, 651.39L497.33, 651.3L494.49, 651.06L490.93, 650.76L486.74, 650.39L482.02, 649.98L476.86, 649.52L471.36, 649.03L459.74, 647.99L447.9, 646.93L442.14, 646.41L436.62, 645.91L431.43, 645.44L426.67, 645.01L424.78, 644.84L423.36, 646.08L423.05, 646.34L422.3, 646.99L421.12, 647.98L419.55, 649.31L417.6, 650.94L415.3, 652.85L412.66, 655.02L409.72, 657.42L406.49, 660.03L403, 662.81L399.28, 665.76L395.33, 668.84L391.19, 672.03L386.88, 675.3L377.84, 682L368.39, 688.75L358.72, 695.34L349, 701.58L339.42, 707.27L334.74, 709.86L330.16, 712.23L325.71, 714.36L321.41, 716.24L317.28, 717.84L313.35, 719.12L309.63, 720.07L306.16, 720.67"/><path stroke="black" fill="none" stroke-width="1" d="M1162.49, 621.58L1165.13, 621.82L1167.93, 621.83L1165.24, 623.34L1162.11, 625.03L1158.56, 626.89L1154.58, 628.91L1150.19, 631.08L1145.41, 633.37L1140.23, 635.78L1134.67, 638.29L1128.74, 640.89L1122.45, 643.56L1115.81, 646.28L1108.83, 649.06L1101.52, 651.86L1093.88, 654.68L1085.93, 657.5L1077.68, 660.31L1069.14, 663.09L1060.31, 665.83L1051.21, 668.51L1041.85, 671.13L1032.24, 673.66L1022.38, 676.1L1012.28, 678.42L1001.97, 680.62L991.44, 682.68L980.7, 684.59L969.77, 686.32L958.66, 687.88L947.37, 689.23L935.91, 690.38L924.3, 691.3L912.55, 691.98L912.38, 691.99L912.22, 692L911.95, 692.01L911.56, 692.02L910.59, 692.06L910.24, 692.07L909.79, 692.08L909.57, 692.09L909.03, 692.11L908.2, 692.14L906.21, 692.21L903.59, 692.3L900.63, 692.41L899.42, 692.45L895.99, 692.57L895.28, 692.59L893.69, 692.65L892.38, 692.7L891.42, 692.73L890.1, 692.78L889.87, 692.79L888.57, 692.84L888.27, 692.85L887.03, 692.89L884.58, 692.98L883.42, 693.02L882.13, 693.07L880.08, 693.15L878.39, 693.21L873.79, 693.38L873.29, 693.4L871.59, 693.46L862.95, 693.79L859.92, 693.91L856.53, 694.04L854.52, 694.13L852.73, 694.2L850.85, 694.28L850.57, 694.29L849.43, 694.34L848.53, 694.38L847.37, 694.43L847.2, 694.43L846.09, 694.48L845.91, 694.49L844.85, 694.54L844.06, 694.57L843.09, 694.62L841.47, 694.69L840.71, 694.73L840.46, 694.75L838.33, 694.85L836.77, 694.95L836.72, 694.95L835.55, 695.02L834.61, 695.08L833.24, 695.32L831.59, 695.85L829.65, 696.68L827.39, 697.82L824.8, 699.26L821.89, 701.01L818.62, 703.09L815, 705.48L811, 708.21L806.62, 711.26L801.84, 714.66L796.65, 718.39L791.04, 722.48L784.99, 726.92L778.5, 731.71L771.55, 736.87L766.12, 740.91L760.9, 744.77L758.46, 746.57L756.18, 748.23L754.09, 749.74L752.23, 751.07L752.17, 748.48L751.85, 745.88L751.08, 743.41L750.47, 742.28L749.69, 741.24L749.38, 740.88L748.9, 740.33L748.28, 739.6L747.53, 738.72L745.68, 736.55L743.48, 733.96L740.54, 730.51L737.75, 727.23L735.09, 724.11L732.57, 721.15L730.18, 718.36L727.91, 715.71L723.75, 710.87L720.05, 706.59L716.78, 702.83L713.92, 699.57L711.43, 696.78L709.3, 694.4L707.48, 692.42L705.95, 690.8L704.69, 689.49L703.66, 688.48L702.83, 687.73L702.17, 687.19L701.66, 686.84L701.07, 686.56L700.14, 686.25L698.76, 685.92L696.81, 685.54L694.17, 685.1L692.57, 684.86L690.75, 684.6L688.7, 684.31L686.42, 684.01L683.87, 683.68L681.06, 683.33L677.96, 682.96L674.57, 682.55L670.86, 682.12L666.82, 681.65L662.45, 681.15L657.72, 680.62L652.62, 680.06L647.13, 679.46L641.25, 678.81L634.95, 678.13L628.23, 677.41L621.07, 676.65L613.45, 675.84L605.36, 674.99L596.79, 674.08L587.72, 673.13L581.93, 672.53L576.5, 671.96L571.53, 671.44L567.06, 670.96L563.17, 670.55L559.93, 670.2L557.4, 669.91L556.43, 669.8L555.66, 669.71L554.23, 669.59L554.19, 669.59L552.83, 669.68L551.16, 669.96L549.15, 670.49L546.77, 671.3L544, 672.44L540.81, 673.97L537.16, 675.93L533.02, 678.35L530.44, 679.71L527.76, 680.68L525.02, 681.27L522.25, 681.47L521.49, 681.45L518.87, 681.17L516.31, 680.51L514.65, 679.87L513.14, 679.09L511.78, 678.18L510.57, 677.13L509.5, 675.94L508.58, 674.6L507.79, 673.13L507.14, 671.51L507.06, 671.28L508.23, 670.75L509.69, 672.92L511.51, 674.72L513.72, 676.17L516.31, 677.27L518.38, 677.82L520.49, 678.14L522.62, 678.22L524.76, 678.06L526.89, 677.67L528.99, 677.04L531.04, 676.19L533.02, 675.11L535.52, 673.62L537.84, 672.3L539.99, 671.15L541.99, 670.14L543.83, 669.28L545.53, 668.55L548.5, 667.45L550.96, 666.76L552.94, 666.42L554.49, 666.35L555.66, 666.46L556.43, 666.56L557.4, 666.67L559.93, 666.95L563.17, 667.31L567.06, 667.72L571.53, 668.2L576.5, 668.72L581.93, 669.29L587.72, 669.89L596.79, 670.84L605.36, 671.74L613.45, 672.6L621.07, 673.41L628.23, 674.17L634.95, 674.89L641.25, 675.57L647.13, 676.21L652.62, 676.82L657.72, 677.38L662.45, 677.91L666.82, 678.41L670.86, 678.87L674.57, 679.31L677.96, 679.71L681.06, 680.09L683.87, 680.44L686.42, 680.77L688.7, 681.07L690.75, 681.36L692.57, 681.62L694.17, 681.86L696.81, 682.3L698.76, 682.68L700.14, 683.01L701.07, 683.32L701.66, 683.6L702.17, 683.95L702.83, 684.48L703.66, 685.24L704.69, 686.25L705.95, 687.55L707.48, 689.18L709.3, 691.16L711.43, 693.53L713.92, 696.33L716.78, 699.59L720.05, 703.35L723.75, 707.63L727.91, 712.47L730.18, 715.12L732.57, 717.91L735.09, 720.87L737.75, 723.98L740.54, 727.27L743.48, 730.72L745.68, 733.31L747.52, 735.48L748.28, 736.36L748.9, 737.08L749.38, 737.64L749.69, 738L750.47, 739.04L751.08, 740.17L751.85, 742.64L752.17, 745.24L752.23, 747.83L754.09, 746.5L756.18, 744.99L758.46, 743.33L760.9, 741.53L766.12, 737.67L771.55, 733.63L778.5, 728.47L784.99, 723.68L791.04, 719.24L796.65, 715.15L801.84, 711.41L806.62, 708.02L811, 704.96L815, 702.24L818.62, 699.84L821.89, 697.77L824.8, 696.02L827.39, 694.58L829.65, 693.44L831.59, 692.61L833.24, 692.08L834.61, 691.84L835.71, 691.76L837.1, 691.68L838.78, 691.59L840.72, 691.49L842.89, 691.39L845.28, 691.28L850.62, 691.05L856.57, 690.8L862.95, 690.55L876.31, 690.04L882.95, 689.8L889.33, 689.56L895.28, 689.35L900.63, 689.16L903.03, 689.08L905.21, 689L907.15, 688.93L908.83, 688.87L910.23, 688.82L911.34, 688.79L912.11, 688.76L912.55, 688.74L923.61, 688.11L934.55, 687.26L945.36, 686.21L956.01, 684.97L966.52, 683.56L976.86, 681.98L987.03, 680.24L997.03, 678.37L1006.84, 676.36L1016.46, 674.24L1025.87, 672.01L1035.08, 669.69L1044.07, 667.28L1052.83, 664.81L1061.35, 662.27L1069.63, 659.69L1077.67, 657.07L1085.44, 654.43L1092.95, 651.77L1100.18, 649.12L1107.12, 646.48L1113.78, 643.86L1120.13, 641.28L1126.18, 638.74L1131.91, 636.27L1137.32, 633.86L1142.39, 631.54L1147.13, 629.31L1151.51, 627.19L1155.54, 625.18L1159.2, 623.31L1162.49, 621.58"/><path stroke="black" fill="none" stroke-width="1" d="M1159.98, 608.83L1162.01, 612.53L1160.33, 612.17L1158.57, 611.68L1156.6, 611.07L1154.44, 610.32L1152.1, 609.41L1149.6, 608.31L1146.95, 607L1144.17, 605.46L1141.27, 603.66L1138.85, 602.03L1137, 600.67L1135.62, 599.53L1134.64, 598.55L1133.96, 597.69L1133.51, 596.87L1132.93, 595.16L1132.9, 594.96L1132.95, 594.65L1133.6, 593.8L1134.39, 595.01L1134.98, 595.67L1135.75, 596.4L1136.74, 597.22L1137.96, 598.15L1139.46, 599.21L1141.27, 600.42L1144.1, 602.17L1146.81, 603.68L1149.4, 604.97L1151.85, 606.06L1154.15, 606.96L1156.28, 607.71L1158.23, 608.33L1159.98, 608.83"/><path stroke="black" fill="none" stroke-width="1" d="M697.5, 495.85L697.41, 493.71L697.69, 491.35L698.12, 492.77L698.18, 492.57L698.9, 490.9L700.02, 489.39L701.53, 488.06L703.44, 486.9L705.24, 486.11L707.29, 485.43L709.56, 484.85L712.04, 484.38L717.52, 483.76L723.55, 483.55L727.83, 483.64L732.23, 483.92L741.19, 485L745.64, 485.81L750, 486.78L754.23, 487.93L758.26, 489.25L764.94, 491.81L770.66, 494.02L773.62, 495.04L776.74, 495.97L780.08, 496.78L783.69, 497.45L787.64, 497.95L791.99, 498.25L793.07, 498.29L794.5, 498.33L797.57, 498.32L798.62, 498.3L798.82, 498.3L801.56, 498.2L806.46, 497.86L809.08, 497.65L811.95, 497.43L815.08, 497.2L818.46, 496.97L819.33, 496.92L822.93, 496.7L824.26, 496.63L825.71, 496.54L829.71, 496.33L831.08, 496.27L832.39, 496.21L834.87, 496.1L836.8, 496.02L839.09, 495.93L843.48, 495.78L848.74, 495.64L852.46, 495.56L870.33, 495.43L888.21, 495.73L892.37, 495.86L896.33, 496L904.13, 496.37L907.37, 496.55L920.02, 497.4L932.93, 498.53L946.03, 499.97L959.25, 501.76L965.27, 502.7L971.5, 503.79L977.91, 505.01L984.5, 506.35L998.12, 509.41L1012.24, 512.92L1026.72, 516.82L1041.45, 521.09L1056.29, 525.68L1071.12, 530.55L1085.82, 535.65L1100.25, 540.94L1114.29, 546.39L1127.81, 551.93L1140.69, 557.54L1146.85, 560.36L1152.8, 563.17L1158.52, 565.98L1164.01, 568.78L1169.24, 571.56L1174.2, 574.32L1174.39, 574.43L1176.09, 575.55L1177.91, 576.83L1181.62, 579.77L1185.01, 583.12L1186.44, 584.9L1187.59, 586.74L1188.27, 588.19L1188.7, 589.66L1188.88, 591.52L1188.58, 593.37L1188.14, 594.57L1187.47, 595.85L1186.48, 597.05L1185.07, 597.99L1183.91, 598.39L1182.82, 598.52L1181.84, 598.44L1181, 598.25L1179.65, 599.45L1182.06, 600.68L1184.02, 602.19L1185.24, 603.6L1186.13, 605.15L1186.67, 606.81L1186.85, 608.56L1186.8, 609.81L1186.41, 611.53L1185.47, 609.6L1184.02, 607.87L1182.6, 606.7L1180.91, 605.7L1178.97, 604.86L1176.8, 604.19L1174.4, 603.69L1171.8, 603.36L1169.01, 603.21L1166.04, 603.24L1161.89, 603.4L1158.85, 597.85L1166.04, 597.57L1167.03, 597.53L1164.3, 596.39L1161.29, 595.22L1158.02, 594.11L1154.49, 593.15L1150.72, 592.42L1146.73, 592.03L1142.51, 592.05L1138.1, 592.57L1141.27, 594.74L1144.17, 596.54L1146.95, 598.09L1149.6, 599.39L1152.1, 600.49L1154.44, 601.4L1156.6, 602.15L1158.57, 602.76L1160.33, 603.25L1161.07, 603.43L1158.85, 603.52L1160.58, 606.7L1166.04, 606.48L1169.01, 606.45L1171.8, 606.6L1174.4, 606.93L1176.8, 607.43L1178.97, 608.1L1180.91, 608.94L1182.6, 609.94L1184.02, 611.11L1185.58, 613.01L1186.41, 611.53L1186.74, 612.86L1186.85, 614.24L1186.84, 614.99L1186.72, 616L1186.85, 617.48L1186.82, 618.46L1186.61, 619.8L1186.02, 621.27L1184.88, 622.66L1183.75, 623.39L1182.63, 623.76L1181.61, 623.88L1180.76, 623.84L1179.63, 624.84L1177.86, 626.12L1175.48, 627.66L1172.5, 629.44L1168.96, 631.44L1164.89, 633.64L1160.31, 636.01L1155.24, 638.53L1149.73, 641.19L1143.78, 643.96L1137.43, 646.81L1130.71, 649.74L1123.65, 652.72L1116.26, 655.72L1108.58, 658.73L1100.64, 661.72L1092.3, 664.74L1083.41, 667.81L1074, 670.91L1064.07, 674.02L1053.65, 677.1L1042.76, 680.12L1031.43, 683.06L1019.68, 685.89L1007.52, 688.57L994.98, 691.08L982.08, 693.39L968.84, 695.47L955.28, 697.28L941.43, 698.82L927.3, 700.03L912.91, 700.9L912.66, 700.9L912.04, 700.93L911.07, 700.96L909.79, 701L908.2, 701.06L906.34, 701.12L904.23, 701.2L901.88, 701.28L896.59, 701.47L890.65, 701.68L884.24, 701.91L877.54, 702.16L864.01, 702.67L857.53, 702.92L851.5, 703.17L846.08, 703.4L843.67, 703.51L841.47, 703.61L839.52, 703.71L837.84, 703.8L836.45, 703.88L835.37, 703.96L834.72, 704.13L833.91, 704.44L831.83, 705.46L829.2, 706.96L826.09, 708.88L822.57, 711.16L818.71, 713.76L814.58, 716.6L810.25, 719.64L801.28, 726.06L792.35, 732.57L788.08, 735.72L784.03, 738.71L780.28, 741.5L776.88, 744.03L772.81, 747.05L769.21, 749.72L766.05, 752.06L763.28, 754.09L760.88, 755.83L758.83, 757.32L757.07, 758.56L755.6, 759.58L754.37, 760.41L753.35, 761.06L752.51, 761.55L751.82, 761.92L750.77, 762.34L749.94, 762.5L748.72, 762.51L747.56, 762.28L746.48, 761.81L745.52, 761.11L744.75, 760.26L744.19, 759.32L743.52, 757.2L743.3, 754.82L743.31, 752.29L743.32, 751.8L743.3, 749.57L743.3, 749.47L743.2, 748.06L742.96, 747.09L742.61, 746.69L742.12, 746.12L740.77, 744.54L738.95, 742.4L736.69, 739.73L734.7, 737.4L732.41, 734.7L729.86, 731.71L727.1, 728.47L721.18, 721.55L715.07, 714.46L712.08, 711.01L709.2, 707.71L706.49, 704.63L703.99, 701.82L701.77, 699.35L699.86, 697.29L698.34, 695.71L697.24, 694.65L696.33, 694.46L695.09, 694.23L693.54, 693.98L691.69, 693.71L689.57, 693.41L687.19, 693.09L684.56, 692.75L681.71, 692.39L678.64, 692.02L675.37, 691.62L668.31, 690.8L660.67, 689.92L652.56, 689.02L644.13, 688.09L635.49, 687.15L618.15, 685.3L609.7, 684.4L601.57, 683.55L593.89, 682.74L586.8, 682L580.71, 681.36L575.1, 680.77L570.02, 680.24L565.53, 679.76L561.67, 679.35L558.49, 679L556.04, 678.73L555.1, 678.62L554.36, 678.53L554.22, 678.51L553.8, 678.55L552.97, 678.7L551.72, 679.04L549.99, 679.63L547.76, 680.54L544.98, 681.85L541.64, 683.63L539.74, 684.72L537.68, 685.96L534.83, 687.5L531.88, 688.72L528.85, 689.61L525.78, 690.16L522.68, 690.38L519.58, 690.25L516.52, 689.79L513.51, 688.97L510.97, 687.98L508.62, 686.77L506.47, 685.33L504.53, 683.68L502.8, 681.82L501.29, 679.75L500, 677.49L498.93, 675.04L498.31, 673.85L497.87, 672.46L497.69, 670.91L497.88, 669.25L497.69, 667.55L497.91, 665.86L498.26, 664.81L498.93, 666.13L499.11, 666.55L500.17, 665.33L501.53, 664.23L503.18, 663.26L505.11, 662.4L503.7, 661.5L501.85, 660.77L500.66, 661.66L499.66, 662.62L498.86, 663.67L498.26, 664.81L497.73, 662.69L497.71, 661.52L497.89, 660.3L496.73, 660.2L495.37, 660.09L492.08, 659.81L488.15, 659.47L483.66, 659.07L478.75, 658.64L473.51, 658.17L462.52, 657.19L451.56, 656.21L446.37, 655.74L441.52, 655.31L437.13, 654.91L433.29, 654.56L430.13, 654.28L428.83, 654.16L427.75, 654.06L426.48, 655.14L424.88, 656.5L422.94, 658.12L420.7, 659.98L418.17, 662.07L415.36, 664.36L412.31, 666.84L409.01, 669.47L405.51, 672.25L401.8, 675.15L393.86, 681.25L385.35, 687.59L376.4, 694.03L367.17, 700.4L357.8, 706.53L348.44, 712.28L339.22, 717.48L334.72, 719.82L330.3, 721.97L326, 723.9L321.83, 725.59L317.8, 727.02L313.94, 728.17L310.26, 729.03L306.78, 729.57L305.03, 729.58L303.33, 729.24L301.74, 728.56L300.3, 727.57L299.07, 726.27L298.14, 724.77L297.52, 723.12L297.26, 721.35L297.28, 718.43L297.26, 718.11L297.25, 715.98L297.4, 713.57L297.64, 714.59L298.13, 711.32L298.82, 707.73L299.27, 705.76L299.84, 703.57L300.51, 701.13L301.27, 698.42L302.08, 695.57L302.93, 692.47L303.83, 689.11L304.76, 685.51L305.69, 681.64L306.62, 677.52L307.52, 673.14L308.39, 668.49L309.21, 663.58L309.97, 658.39L310.64, 652.94L311.22, 647.21L311.69, 641.21L312.03, 634.93L312.23, 628.36L312.28, 621.52L312.16, 628.04L311.91, 634.29L311.53, 640.28L311.03, 646.01L310.44, 651.48L309.76, 656.7L309, 661.65L308.19, 666.36L307.34, 670.81L306.45, 675.02L305.55, 678.98L304.65, 682.7L303.75, 686.18L302.88, 689.41L302.05, 692.41L301.27, 695.18L300.51, 697.89L299.84, 700.33L299.27, 702.52L298.82, 704.48L297.93, 709.34L297.4, 713.57L297.26, 712.44L297.27, 709.69L297.54, 706.49L298.05, 702.86L298.82, 698.81L299.27, 696.84L299.84, 694.66L300.51, 692.22L301.27, 689.51L302.03, 686.82L302.84, 683.9L303.68, 680.77L304.55, 677.4L305.43, 673.81L306.31, 669.99L307.18, 665.93L308.02, 661.64L308.82, 657.11L309.56, 652.34L310.25, 647.34L310.85, 642.09L311.37, 636.59L311.78, 630.84L312.08, 624.85L312.24, 618.6L312.09, 612.58L311.81, 606.35L311.38, 599.92L310.81, 593.29L310.08, 586.45L309.18, 579.4L308.1, 572.15L306.85, 564.68L305.4, 557.01L303.74, 549.12L301.88, 541.02L299.8, 532.71L297.49, 524.17L294.95, 515.42L292.16, 506.45L289.11, 497.26L286, 488.14L287.28, 488.64L286, 484.9L288.24, 485.78L289.11, 488.34L289.51, 489.52L294.96, 491.67L295.59, 491.92L296.72, 492.37L298.32, 493.03L300.37, 493.87L302.83, 494.91L305.7, 496.13L308.93, 497.53L312.51, 499.11L316.42, 500.86L320.62, 502.77L325.09, 504.85L329.8, 507.09L334.74, 509.48L339.87, 512.02L345.17, 514.7L350.62, 517.52L361.86, 523.57L373.37, 530.12L384.96, 537.14L396.44, 544.6L407.59, 552.45L418.22, 560.66L423.27, 564.89L428.12, 569.19L432.74, 573.57L437.1, 578.02L438.71, 577.97L439.46, 577.95L440.71, 577.92L441.55, 577.89L441.63, 577.89L442.55, 577.87L443.47, 577.84L445.77, 577.78L446.88, 577.76L449.31, 577.69L450.05, 577.67L452.55, 577.6L454.49, 577.54L456.89, 577.49L458.88, 577.43L460.35, 577.39L460.59, 577.38L464.13, 577.29L465.66, 577.25L467.21, 577.21L468.77, 577.17L471.42, 577.1L472.68, 577.07L472.96, 577.06L474.25, 577.03L474.49, 577.02L475.83, 576.98L477.53, 576.94L478.17, 576.92L479.64, 576.88L482.18, 576.82L483.23, 576.79L485.2, 576.74L486.31, 576.71L493.84, 576.52L495.59, 576.47L497.69, 576.42L499.54, 576.37L501.29, 576.33L502.25, 576.3L502.5, 576.3L502.95, 576.29L503.3, 576.28L503.98, 576.26L505.45, 576.23L505.91, 576.22L506.8, 576.2L507.37, 576.18L508.92, 576.15L510.86, 576.11L511.53, 576.1L511.98, 576.09L512.89, 575.74L514.04, 574.98L515.12, 573.89L515.82, 572.57L515.88, 571.34L515.48, 570.1L514.68, 571.15L513.71, 571.99L512.74, 572.58L511.98, 572.85L511.42, 572.86L510.56, 572.87L509.42, 572.9L508.01, 572.93L506.36, 572.97L504.49, 573.01L500.13, 573.12L495.1, 573.24L489.53, 573.38L483.58, 573.54L477.39, 573.7L464.9, 574.03L458.88, 574.19L453.23, 574.34L448.07, 574.48L443.57, 574.6L441.6, 574.65L439.86, 574.7L438.35, 574.74L437.1, 574.77L432.74, 570.33L428.12, 565.95L423.27, 561.64L418.22, 557.42L407.59, 549.21L396.44, 541.35L384.96, 533.9L373.37, 526.88L361.86, 520.33L350.62, 514.28L345.17, 511.46L339.87, 508.77L334.74, 506.24L329.8, 503.85L325.09, 501.61L320.62, 499.53L316.42, 497.61L312.51, 495.87L308.93, 494.29L305.7, 492.89L302.83, 491.67L300.37, 490.63L298.32, 489.79L296.72, 489.13L295.59, 488.68L294.96, 488.43L288.24, 485.78L286, 479.22L294.96, 482.76L295.59, 483.01L296.72, 483.46L298.32, 484.11L300.37, 484.96L302.83, 485.99L305.7, 487.21L308.93, 488.61L312.51, 490.19L316.42, 491.94L320.62, 493.86L325.09, 495.94L329.8, 498.17L334.74, 500.56L339.87, 503.1L345.17, 505.78L350.62, 508.61L361.86, 514.65L373.37, 521.21L384.96, 528.23L396.44, 535.68L407.59, 543.53L418.22, 551.74L423.27, 555.97L428.12, 560.28L432.74, 564.65L437.1, 569.1L438.35, 569.07L439.86, 569.02L441.6, 568.98L443.57, 568.92L448.07, 568.8L453.23, 568.67L458.88, 568.51L464.9, 568.36L477.39, 568.03L483.58, 567.86L489.53, 567.71L495.1, 567.57L500.13, 567.44L504.49, 567.34L506.36, 567.29L508.01, 567.25L509.42, 567.22L510.56, 567.2L511.42, 567.18L511.98, 567.18L512.85, 566.85L512.16, 566.24L510.21, 564.61L510.68, 561.76L510.21, 561.37L511.03, 556.37L511.5, 556.76L520.55, 501.51L520.74, 501.06L520.94, 500.59L521.36, 499.74L522.01, 498.61L522.89, 497.3L524.03, 495.91L525.44, 494.55L527.11, 493.32L529.08, 492.31L531.14, 491.68L533.28, 491.43L533.29, 491.43L534.09, 491.44L534.1, 491.44L536.78, 491.81L539.49, 492.73L541.55, 493.67L544.11, 494.88L547.12, 496.36L550.56, 498.09L554.36, 500.05L558.5, 502.25L562.92, 504.65L567.58, 507.26L572.44, 510.06L577.45, 513.03L587.77, 519.45L598.18, 526.43L608.34, 533.86L610.03, 533.81L610.09, 533.81L612.24, 533.42L614.83, 532.55L616.26, 531.88L617.76, 531.01L619.31, 529.94L620.91, 528.64L621.93, 527.72L623.3, 527.54L623.51, 527.52L623.93, 527.47L625.33, 527.3L627.39, 527.08L630, 526.82L633.04, 526.55L636.39, 526.3L643.58, 525.96L643.67, 525.96L644.37, 525.94L649.84, 525.97L652.09, 525.96L652.25, 525.95L652.98, 525.91L656.1, 525.61L659.56, 525.13L663.28, 524.5L667.19, 523.76L675.26, 522.05L683.16, 520.27L689.75, 518.78L692.74, 518.13L695.44, 517.58L699.87, 516.93L703.92, 516.67L705.53, 516.62L706.41, 516.6L707.47, 516.59L708.72, 516.57L711.62, 516.44L711.77, 516.42L712.04, 516.4L712.25, 516.38L713.35, 516.13L713.42, 515.71L713.37, 515.11L713.05, 514.52L712.43, 513.9L711.49, 513.22L707.47, 513.34L704.84, 513.39L701.94, 513.52L698.79, 513.81L695.44, 514.33L692.74, 514.88L689.75, 515.53L683.16, 517.02L674.06, 519.07L664.85, 520.97L660.49, 521.73L656.46, 522.32L652.87, 522.66L649.84, 522.73L645.56, 522.68L641.13, 522.8L636.76, 523.03L632.67, 523.34L629.07, 523.66L627.51, 523.82L626.16, 523.97L625.04, 524.09L624.17, 524.2L623.58, 524.27L623.3, 524.3L621.93, 524.48L620.91, 525.4L618.87, 527.02L616.91, 528.28L615.05, 529.21L613.33, 529.87L611.76, 530.29L610.4, 530.53L609.25, 530.63L608.37, 530.63L598.2, 523.2L587.78, 516.22L577.46, 509.79L572.45, 506.82L567.59, 504.02L562.92, 501.42L558.5, 499.01L554.37, 496.81L550.56, 494.85L547.12, 493.12L544.11, 491.64L541.55, 490.43L539.49, 489.49L536.81, 488.57L534.15, 488.19L531.56, 488.36L529.08, 489.07L527.11, 490.08L525.44, 491.31L524.03, 492.67L522.89, 494.06L522.01, 495.37L521.36, 496.5L520.94, 497.35L520.74, 497.82L520.55, 498.27L511.03, 556.37L510.21, 555.69L520.55, 492.6L520.74, 492.14L520.94, 491.67L521.36, 490.82L522.01, 489.69L522.89, 488.38L524.03, 487L525.44, 485.64L527.11, 484.4L529.08, 483.4L531.56, 482.68L534.15, 482.52L536.81, 482.9L539.49, 483.82L541.55, 484.75L544.11, 485.97L547.12, 487.45L550.56, 489.17L554.37, 491.14L558.5, 493.33L562.92, 495.74L567.59, 498.35L572.45, 501.15L577.46, 504.12L587.78, 510.55L598.2, 517.53L608.37, 524.96L609.25, 524.95L610.4, 524.85L611.76, 524.62L613.33, 524.19L615.05, 523.54L616.91, 522.61L618.87, 521.35L620.91, 519.72L621.93, 518.81L623.3, 518.63L623.58, 518.59L624.17, 518.52L625.04, 518.42L626.16, 518.29L627.52, 518.15L629.07, 517.99L632.67, 517.66L636.76, 517.36L641.13, 517.12L645.56, 517.01L649.84, 517.06L652.87, 516.99L656.46, 516.64L660.49, 516.06L664.85, 515.29L674.06, 513.4L683.16, 511.35L689.75, 509.86L692.74, 509.21L695.44, 508.66L699.22, 508.09L702.72, 507.81L700.47, 505.65L699.5, 504.39L698.67, 502.99L698.03, 501.45L697.6, 499.75L697.41, 497.89L697.5, 495.85"/><path stroke="black" fill="none" stroke-width="1" d="M612.38, 395.01L613.32, 394.96L614.46, 394.93L616.94, 394.88L618.08, 394.87L619.02, 394.87L619.65, 394.87L619.89, 394.86L619.59, 394.87L618.82, 394.91L617.72, 394.99L616.44, 395.14L615.14, 395.35L613.98, 395.66L613.1, 396.07L612.66, 396.6L612.56, 397.12L612.42, 398.06L612.25, 399.35L612.05, 400.94L611.58, 404.75L611.07, 409L610.57, 413.23L610.33, 415.17L610.1, 416.93L609.9, 418.44L609.73, 419.64L609.59, 420.47L609.49, 420.86L609.22, 421.12L608.59, 421.55L607.64, 422.14L606.36, 422.85L604.8, 423.67L602.97, 424.57L600.9, 425.53L598.6, 426.54L593.42, 428.57L587.61, 430.49L581.35, 432.13L574.82, 433.29L574.46, 433.38L573.41, 433.64L571.72, 434.02L569.45, 434.46L566.64, 434.93L563.36, 435.37L559.65, 435.73L555.57, 435.98L551.17, 436.06L546.49, 435.92L541.6, 435.52L536.55, 434.81L531.38, 433.75L526.16, 432.28L520.93, 430.36L515.74, 427.94L515.51, 427.82L514.87, 427.47L513.87, 426.88L512.56, 426.07L511.02, 425.04L509.28, 423.8L507.42, 422.36L505.49, 420.72L491.04, 418.99L505.77, 418.84L505.97, 418.98L506.55, 419.36L507.47, 419.96L508.7, 420.75L510.23, 421.68L512.01, 422.74L514.01, 423.88L516.21, 425.07L521.08, 427.5L526.37, 429.75L531.85, 431.57L534.58, 432.24L537.26, 432.71L540.05, 433.01L543.08, 433.2L549.67, 433.31L556.64, 433.12L563.6, 432.69L570.16, 432.1L573.18, 431.77L575.95, 431.43L578.43, 431.08L580.57, 430.74L582.32, 430.41L583.63, 430.11L587.05, 429.08L590.69, 427.77L594.36, 426.28L597.88, 424.69L601.04, 423.11L603.68, 421.62L604.74, 420.94L605.59, 420.31L606.22, 419.75L606.6, 419.28L606.85, 418.72L607.11, 417.95L607.65, 415.87L608.2, 413.26L608.75, 410.36L609.25, 407.38L609.71, 404.57L610.08, 402.15L610.35, 400.36L610.35, 400.13L610.36, 399.54L610.55, 397.74L610.78, 396.76L611.14, 395.91L611.67, 395.28L612.38, 395.01"/><path stroke="black" fill="none" stroke-width="1" d="M622.49, 396.89L621.81, 396.4L621.29, 396.47L620.91, 396.94L620.64, 397.66L620.37, 399.26L620.33, 399.84L620.32, 400.07L619.74, 435.03L612.38, 437.1L605.16, 438.83L598.12, 440.26L591.32, 441.41L584.8, 442.32L578.61, 443L572.79, 443.49L567.38, 443.81L562.44, 443.99L558.01, 444.05L554.14, 444.03L550.86, 443.96L548.24, 443.85L546.3, 443.74L545.11, 443.65L544.81, 443.63L544.7, 443.62L539.51, 443.11L534.56, 442.49L529.86, 441.78L525.39, 440.97L521.16, 440.09L517.15, 439.13L513.37, 438.1L509.8, 437.02L506.43, 435.89L503.28, 434.71L497.56, 432.27L492.59, 429.76L488.33, 427.24L484.73, 424.78L481.76, 422.43L479.36, 420.28L477.5, 418.37L476.13, 416.77L475.2, 415.55L474.68, 414.77L474.52, 414.5L505.88, 414.87L509.49, 417.55L512.9, 419.87L516.12, 421.86L519.19, 423.55L522.13, 424.97L524.95, 426.14L527.68, 427.09L530.34, 427.84L535.56, 428.87L540.79, 429.45L546.2, 429.79L552, 430.11L556.07, 430.23L560.25, 430.11L564.5, 429.76L568.77, 429.23L577.18, 427.72L581.23, 426.78L585.11, 425.78L588.79, 424.72L592.2, 423.64L595.32, 422.56L598.08, 421.52L600.45, 420.55L602.38, 419.66L603.81, 418.89L604.72, 418.27L605.31, 417.6L605.84, 416.7L606.71, 414.32L607.38, 411.36L607.86, 408.05L608.2, 404.61L608.42, 401.28L608.55, 398.3L608.62, 395.88L608.83, 394.05L609.29, 392.66L609.92, 391.64L610.62, 390.93L611.32, 390.48L611.93, 390.23L612.36, 390.12L612.52, 390.1L614.57, 390L616.36, 389.96L617.9, 389.98L619.21, 390.07L621.24, 390.41L622.61, 390.95L623.49, 391.67L624.04, 392.56L624.8, 394.72L625.03, 395.73L624.92, 396.4L624.57, 396.8L624.08, 397L623.01, 397L622.63, 396.93L622.49, 396.89"/><path stroke="black" fill="none" stroke-width="1" d="M624.3, 312L624.3, 313.46L624.3, 315.43L624.32, 317.17L624.36, 318.67L624.41, 319.91L624.47, 320.85L624.55, 321.48L624.65, 321.78L625.02, 322.02L625.67, 322.27L626.56, 322.51L627.65, 322.75L630.29, 323.22L633.27, 323.64L636.28, 324L639.01, 324.27L641.16, 324.46L641.92, 324.5L642.42, 324.52L642.64, 324.5L642.6, 324.45L642.33, 324.36L641.86, 324.24L640.43, 323.93L638.52, 323.56L634.09, 322.75L632, 322.38L630.29, 322.07L629.02, 321.73L628.16, 321.3L627.72, 320.82L627.7, 320.31L628.13, 319.83L629.01, 319.4L630.35, 319.08L632.16, 318.89L634.44, 318.85L637.02, 319L639.73, 319.35L642.38, 319.97L644.81, 320.88L646.83, 322.14L647.63, 322.9L648.26, 323.77L648.7, 324.74L648.92, 325.82L648.94, 326.89L648.82, 327.81L648.19, 329.28L647.21, 330.32L646.03, 330.99L644.83, 331.37L643.76, 331.55L643, 331.6L642.71, 331.6L642.52, 331.61L641.97, 331.62L641.08, 331.65L639.88, 331.69L638.39, 331.73L636.62, 331.78L634.61, 331.84L632.38, 331.9L627.34, 332.04L621.69, 332.17L615.61, 332.3L609.29, 332.41L596.65, 332.55L590.7, 332.56L585.24, 332.51L582.76, 332.47L580.47, 332.4L578.4, 332.32L576.56, 332.22L574.99, 332.1L573.7, 331.96L572.72, 331.79L572.08, 331.6L571.22, 331.13L570.56, 330.53L569.75, 329.06L569.53, 327.34L569.8, 325.51L570.47, 323.73L571.42, 322.15L572.57, 320.92L573.81, 320.19L574.63, 319.98L575.81, 319.8L577.29, 319.64L579.02, 319.5L582.99, 319.27L587.26, 319.1L591.37, 318.99L593.23, 318.96L594.87, 318.93L596.25, 318.91L597.31, 318.9L597.98, 318.89L598.22, 318.89M601.38, 312L601.4, 320.77L601.29, 320.85L600.94, 321.09L600.32, 321.44L599.38, 321.87L598.08, 322.32L596.4, 322.78L594.29, 323.18L591.72, 323.51L589.05, 323.77L586.7, 324.02L584.67, 324.24L582.98, 324.43L581.64, 324.59L580.67, 324.71L580.08, 324.78L579.88, 324.81L579.94, 324.73L580.17, 324.51L580.61, 324.19L581.34, 323.8L582.39, 323.39L583.84, 322.98L585.72, 322.63L588.11, 322.35L590.6, 322.19L592.76, 322.08L594.57, 321.96L596.03, 321.76L597.14, 321.42L597.88, 320.87L598.24, 320.05L598.22, 318.89"/><path stroke="black" fill="none" stroke-width="1" d="M429.51, 376.8L428.92, 376.83L428.55, 376.37L428.41, 375.28L428.5, 374.04L428.99, 372.89L429.45, 372.41L430.08, 372.04L431.3, 371.63L432.81, 371.28L434.52, 371.07L436.31, 371.05L438.09, 371.28L439.73, 371.82L441.15, 372.73L442.22, 374.07L442.91, 375.78L443.34, 377.72L443.79, 381.92L444.03, 384.01L444.43, 385.99L445.09, 387.76L446.12, 389.23L446.94, 389.89L448.12, 390.56L449.62, 391.23L451.39, 391.88L453.39, 392.5L455.57, 393.07L460.31, 394.03L465.26, 394.66L470.05, 394.84L472.28, 394.73L474.33, 394.46L476.17, 394.03L477.75, 393.42L480.33, 391.92L482.37, 390.27L483.96, 388.5L485.16, 386.65L486.04, 384.75L486.69, 382.84L487.58, 379.12L487.59, 379.3L487.62, 379.81L487.63, 380.62L487.6, 381.66L487.32, 384.32L486.58, 387.44L485.97, 389.07L485.17, 390.68L484.15, 392.23L482.88, 393.69L481.35, 394.99L479.52, 396.11L477.36, 397L474.86, 397.61L472.18, 397.97L469.5, 398.12L464.25, 397.92L459.29, 397.17L454.77, 396L450.87, 394.59L449.2, 393.84L447.75, 393.08L446.53, 392.34L445.58, 391.63L444.9, 390.97L444.53, 390.39L444.09, 389.08L443.6, 387.41L443.06, 385.46L442.42, 383.35L440.77, 379.01L439.71, 377L438.46, 375.22L438.28, 375.17L437.77, 375.06L436.95, 374.96L435.86, 374.93L434.54, 375.03L433.02, 375.33L431.33, 375.9L429.51, 376.8"/><path stroke="black" fill="none" stroke-width="1" d="M491.88, 312L491.7, 316.24L491.64, 318.34L491.59, 320.25L491.57, 321.92L491.59, 323.3L491.65, 324.33L491.76, 324.95L491.89, 325.52L491.99, 326.38L492.06, 327.49L492.12, 328.8L492.15, 331.83L492.09, 335.12L491.93, 338.29L491.68, 340.98L491.52, 342.03L491.34, 342.82L491.13, 343.31L490.9, 343.44L490.64, 343.45L489.91, 343.48L488.76, 343.5L487.23, 343.5L485.39, 343.46L483.28, 343.38L478.47, 343.01L477.02, 342.88L475.25, 342.75L473.2, 342.6L470.92, 342.44L465.89, 342.01L460.55, 341.37L455.27, 340.43L452.78, 339.83L450.46, 339.13L448.36, 338.31L446.51, 337.37L444.98, 336.29L443.81, 335.07L442.86, 333.62L441.96, 331.89L441.13, 329.91L440.38, 327.72L439.14, 322.8L438.34, 317.37L438.08, 312"/><path stroke="black" fill="none" stroke-width="1" d="M510.63, 312L510.83, 371.18L510.81, 374.91L510.64, 378.42L510.29, 381.71L509.75, 384.79L509, 387.65L508.03, 390.31L506.82, 392.77L505.34, 395.03L503.59, 397.09L501.54, 398.96L499.18, 400.65L496.49, 402.15L493.45, 403.48L490.05, 404.63L486.27, 405.61L482.09, 406.42L477.68, 407.02L473.25, 407.37L468.85, 407.5L464.52, 407.43L460.29, 407.21L456.22, 406.86L452.33, 406.4L448.68, 405.86L445.31, 405.28L442.24, 404.68L439.54, 404.1L437.24, 403.56L435.37, 403.08L433.99, 402.71L433.13, 402.47L432.83, 402.38L432.97, 376.38L434.87, 375.86L436.87, 376.05L437.82, 376.41L438.66, 376.95L439.37, 377.66L439.91, 378.54L440.26, 379.67L440.49, 381.06L440.77, 384.39L441.17, 388.05L441.53, 389.85L442.07, 391.54L442.56, 392.34L443.35, 393.1L444.38, 393.82L445.63, 394.5L448.55, 395.73L451.75, 396.78L454.87, 397.62L457.55, 398.25L458.61, 398.47L459.43, 398.63L459.95, 398.73L460.13, 398.77L462.97, 399.37L465.68, 399.72L468.27, 399.84L470.73, 399.76L473.06, 399.49L475.25, 399.06L479.2, 397.81L482.55, 396.17L485.28, 394.32L487.35, 392.43L488.73, 390.68L489.22, 389.59L489.67, 388L490.07, 385.99L490.43, 383.61L490.75, 380.96L491.03, 378.09L491.49, 371.99L491.82, 365.9L491.94, 363.04L492.04, 360.39L492.11, 358.03L492.16, 356.04L492.19, 354.47L492.2, 353.41L492.07, 352.03L491.74, 350.99L491.28, 350.24L490.75, 349.74L489.76, 349.29L489.43, 349.23L489.31, 349.22L483.04, 349.81L476.57, 350.02L470.22, 349.94L464.32, 349.67L461.63, 349.49L459.17, 349.3L456.98, 349.1L455.1, 348.92L453.57, 348.75L452.43, 348.62L451.71, 348.53L451.46, 348.5L446.41, 347.64L441.94, 346.56L438.02, 345.27L434.61, 343.78L431.66, 342.12L429.15, 340.31L427.03, 338.37L425.26, 336.31L423.81, 334.16L422.63, 331.94L421.68, 329.66L420.93, 327.35L419.86, 322.71L419.11, 318.17L418.66, 313.43L418.68, 312"/><path stroke="black" fill="none" stroke-width="1" d="M489.16, 340.7L489.57, 340.98L489.76, 341.23L489.73, 341.45L489.5, 341.63L488.48, 341.92L486.8, 342.08L484.56, 342.14L481.85, 342.09L478.78, 341.94L475.44, 341.69L468.35, 340.94L461.38, 339.87L458.17, 339.22L455.29, 338.52L452.83, 337.76L450.89, 336.94L449.31, 336.01L447.9, 334.91L445.5, 332.32L443.63, 329.38L442.24, 326.31L441.26, 323.31L440.63, 320.59L440.29, 318.37L440.22, 317.52L440.2, 316.86L440.26, 315.92L440.44, 315.24L440.99, 314.48L441.54, 314.26L441.79, 314.26L441.75, 315.28L441.84, 316.5L442.26, 319.18L442.5, 320.4L442.72, 321.41L442.88, 322.1L442.94, 322.35L443.61, 324.48L444.35, 326.36L445.16, 328.01L446.03, 329.45L447.87, 331.77L449.77, 333.44L451.63, 334.58L453.34, 335.31L454.81, 335.77L455.94, 336.08L456.53, 336.22L457.37, 336.37L459.67, 336.7L462.6, 337.03L465.93, 337.36L472.86, 337.88L476, 338.04L478.62, 338.1L480.81, 338.21L482.83, 338.5L484.62, 338.92L486.17, 339.4L487.43, 339.88L488.37, 340.29L488.96, 340.59L489.16, 340.7"/><path stroke="black" fill="none" stroke-width="1" d="M212.82, 383.11L212.54, 383.19L211.74, 383.44L210.47, 383.84L208.79, 384.38L206.75, 385.06L204.4, 385.88L201.79, 386.81L198.97, 387.86L192.94, 390.27L186.71, 393.03L180.71, 396.1L177.93, 397.72L175.36, 399.39L173.07, 401.14L171.06, 402.96L169.33, 404.86L167.84, 406.82L166.59, 408.81L165.55, 410.84L164.05, 414.93L163.2, 418.98L162.84, 422.88L162.84, 426.52L163.06, 429.79L163.28, 431.47L163.73, 433.4L164.47, 435.52L165.55, 437.77L167.04, 440.07L169, 442.36L171.49, 444.57L174.57, 446.64L178.31, 448.5L180.44, 449.33L182.76, 450.09L185.28, 450.75L188, 451.33L190.93, 451.8L194.07, 452.16L197.45, 452.4L201.05, 452.51L204.9, 452.49L208.99, 452.32L213.34, 452.01L217.96, 451.53L222.85, 450.88L228.01, 450.06L228.14, 450L228.51, 449.86L229.08, 449.62L229.83, 449.3L231.74, 448.45L234.01, 447.39L236.38, 446.17L238.62, 444.87L240.5, 443.55L241.76, 442.28L241.79, 442.08L241.86, 441.53L241.97, 440.66L242.11, 439.53L242.46, 436.68L242.87, 433.36L243.29, 429.96L243.67, 426.86L243.83, 425.54L243.96, 424.44L244.06, 423.61L244.12, 423.1L244.38, 421.7L245.02, 420.34L246.2, 419.18L247.05, 418.73L248.1, 418.39L247.97, 418.35L247.61, 418.27L246.4, 418.21L245.63, 418.36L244.81, 418.7L243.99, 419.29L243.21, 420.2L242.86, 420.87L242.56, 421.77L242.03, 424.16L241.57, 427.12L241.11, 430.42L240.57, 433.83L239.88, 437.1L238.97, 439.99L238.42, 441.23L237.78, 442.28L237.63, 442.39L237.18, 442.72L236.42, 443.23L235.37, 443.89L234.02, 444.67L232.38, 445.52L230.45, 446.42L228.24, 447.34L225.74, 448.24L222.96, 449.1L219.9, 449.87L216.56, 450.52L212.95, 451.03L209.07, 451.35L204.93, 451.46L200.51, 451.32L200.29, 451.31L199.66, 451.27L198.66, 451.19L197.34, 451.06L195.75, 450.88L193.93, 450.64L189.79, 449.92L185.3, 448.85L180.82, 447.35L178.7, 446.43L176.72, 445.37L174.93, 444.17L173.37, 442.82L170.83, 439.97L168.88, 437.16L167.45, 434.47L166.47, 431.99L165.9, 429.78L165.66, 427.93L165.7, 426.53L165.95, 425.63L166.26, 425.37L166.51, 425.74L166.76, 426.6L167.04, 427.85L167.38, 429.34L167.84, 430.97L168.43, 432.61L169.21, 434.13L170.35, 435.79L172.05, 437.79L174.34, 439.98L177.26, 442.21L180.86, 444.31L182.93, 445.26L185.19, 446.12L187.63, 446.87L190.28, 447.48L193.12, 447.95L196.17, 448.25L202.43, 448.44L208.53, 448.22L214.39, 447.64L219.92, 446.71L225.02, 445.48L229.6, 443.97L233.59, 442.23L236.88, 440.29L236.98, 440.14L237.24, 439.7L237.61, 438.95L238.03, 437.89L238.44, 436.51L238.79, 434.79L239.01, 432.74L239.05, 430.33L239.11, 430.03L239.25, 429.2L239.47, 427.97L239.73, 426.44L240.27, 423.01L240.51, 421.33L240.68, 419.84L240.88, 418.55L241.23, 417.41L241.77, 416.43L242.53, 415.61L243.55, 414.97L244.85, 414.52L246.48, 414.27L248.46, 414.23L250.49, 414.38L252.25, 414.69L253.71, 415.17L254.88, 415.84L255.75, 416.7L256.3, 417.77L256.52, 419.05L256.42, 420.56L256.14, 420.79L255.4, 421.15L254.36, 421.17L253.77, 420.91L253.16, 420.38L253.08, 420.7L252.86, 421.61L252.55, 423.03L252.21, 424.88L251.89, 427.11L251.64, 429.62L251.5, 432.35L251.54, 435.22L251.62, 438.39L251.63, 441.92L251.58, 445.57L251.49, 449.08L251.38, 452.24L251.28, 454.79L251.24, 455.76L251.2, 456.49L251.18, 456.95L251.17, 457.11L251.05, 457.14L250.68, 457.21L250.09, 457.32L249.28, 457.48L247.06, 457.88L244.11, 458.4L240.53, 458.98L236.41, 459.61L231.85, 460.25L226.95, 460.87L221.79, 461.43L216.48, 461.9L205.76, 462.46L200.54, 462.47L195.54, 462.27L190.85, 461.82L186.58, 461.09L186.24, 461.04L185.27, 460.86L183.74, 460.53L181.74, 460.04L179.32, 459.36L176.57, 458.49L173.56, 457.39L170.36, 456.05L167.05, 454.45L163.71, 452.57L160.39, 450.39L157.19, 447.89L154.17, 445.05L151.41, 441.86L148.98, 438.28L146.95, 434.32L146.86, 434.09L146.61, 433.45L146.24, 432.41L146, 431.66M146, 400.65L146.03, 400.56L147.5, 397.22L149.18, 394.03L150.91, 391.07L152.71, 388.34L154.6, 385.82L156.59, 383.49L158.69, 381.34L160.93, 379.35L163.33, 377.5L165.89, 375.78L168.64, 374.17L171.6, 372.66L174.77, 371.22L178.19, 369.84L181.85, 368.51L185.79, 367.21L190.02, 365.92L198.59, 363.19L206.72, 360.17L214.26, 356.9L217.77, 355.18L221.07, 353.41L224.15, 351.6L227, 349.75L229.6, 347.87L231.92, 345.95L233.96, 344L235.68, 342.04L237.09, 340.05L238.15, 338.06L238.99, 335.83L239.73, 333.21L240.33, 330.23L240.76, 326.97L240.97, 323.47L240.95, 319.81L240.64, 316.02L240.02, 312.18L239.97, 312M212.82, 383.11L219.36, 380.93L225.26, 378.63L230.54, 376.22L235.24, 373.73L239.39, 371.18L243.03, 368.6L246.19, 366.01L248.91, 363.43L251.22, 360.89L253.17, 358.42L254.77, 356.03L256.07, 353.75L257.1, 351.6L257.91, 349.61L258.51, 347.8L258.95, 346.2L259.32, 344.54L259.64, 342.55L259.92, 340.27L260.14, 337.73L260.27, 334.96L260.31, 331.99L260.23, 328.84L260.02, 325.55L259.14, 318.67L258.45, 315.13L257.66, 312M152.18, 312L150.03, 324.3L146, 324.68"/><path stroke="black" fill="none" stroke-width="1" d="M262.79, 312L263.17, 313.87L263.84, 318.33L263.76, 317.98L263.52, 316.95L263.08, 315.34L262.43, 313.22L262, 312"/><path stroke="black" fill="none" stroke-width="1" d="M322.14, 387.56L322.04, 387.37L321.75, 386.8L321.3, 385.88L320.72, 384.62L320.04, 383.04L319.29, 381.17L318.51, 379.02L317.72, 376.61L316.94, 373.96L316.22, 371.09L315.58, 368.02L315.05, 364.77L314.66, 361.36L314.44, 357.81L314.43, 354.13L314.64, 350.35L375.26, 350.65L375.27, 350.77L375.27, 351.13L375.28, 351.71L375.29, 352.5L375.26, 354.65L375.17, 357.44L374.98, 360.78L374.65, 364.53L374.14, 368.58L373.42, 372.82L372.47, 377.12L371.23, 381.38L369.69, 385.46L367.79, 389.26L365.52, 392.66L362.83, 395.54L361.31, 396.75L359.68, 397.78L357.93, 398.63L356.05, 399.27L355.78, 399.33L355, 399.49L353.77, 399.7L352.15, 399.93L350.18, 400.12L347.94, 400.23L345.46, 400.23L342.81, 400.05L340.05, 399.68L337.22, 399.05L334.4, 398.12L331.62, 396.86L328.95, 395.22L326.44, 393.15L324.15, 390.61L322.14, 387.56"/><path stroke="black" fill="none" stroke-width="1" d="M368.66, 341.95L371.35, 342.24L374.36, 342.47L380.74, 342.73L383.79, 342.8L386.55, 342.83L388.86, 342.84L390.57, 342.85L396.27, 342.85L396.28, 342.98L396.29, 343.38L396.31, 344.04L396.33, 344.92L396.34, 346.03L396.33, 347.33L396.25, 350.5L396.03, 354.31L395.62, 358.62L394.98, 363.34L394.06, 368.32L392.8, 373.45L391.16, 378.62L389.08, 383.69L386.52, 388.55L383.43, 393.08L381.67, 395.19L379.76, 397.16L377.68, 398.99L375.45, 400.66L373.04, 402.16L370.46, 403.47L370.3, 403.53L369.84, 403.69L369.1, 403.94L368.08, 404.27L366.81, 404.65L365.31, 405.07L363.59, 405.51L361.66, 405.96L357.28, 406.82L352.29, 407.5L346.84, 407.9L341.05, 407.86L335.07, 407.26L329.02, 405.97L326.02, 405.03L323.05, 403.87L320.13, 402.47L317.28, 400.81L314.52, 398.88L311.87, 396.67L309.33, 394.15L306.93, 391.32L304.68, 388.15L302.61, 384.63L300.72, 380.73L299.03, 376.46L298.94, 376.11L298.68, 375.1L298.29, 373.49L297.79, 371.33L297.21, 368.68L296.6, 365.6L295.97, 362.15L295.36, 358.38L294.8, 354.35L294.31, 350.11L293.72, 341.26L293.66, 336.76L293.81, 332.28L294.19, 327.89L294.83, 323.64L296.64, 315.56L297.66, 312M368.66, 341.95L367.93, 341.87L366.97, 341.81L364.47, 341.73L361.28, 341.69L357.53, 341.71L353.34, 341.75L348.86, 341.83L339.47, 342.06L334.84, 342.19L330.4, 342.32L326.3, 342.45L322.66, 342.58L319.6, 342.68L318.34, 342.73L317.26, 342.77L316.4, 342.8L315.77, 342.83L315.37, 342.84L315.24, 342.85L314.54, 339.59L314.14, 336.06L314.01, 332.29L314.17, 328.37L314.61, 324.32L315.32, 320.22L316.29, 316.13L317.53, 312.08L317.56, 312M294.27, 312L294.17, 312.38L293.08, 317.44L292.66, 319.79L292.31, 321.95L292.03, 323.89L291.81, 325.57L291.65, 326.95L291.55, 327.98L291.49, 328.63L291.47, 328.86L291.44, 328.52L291.37, 327.54L291.3, 325.99L291.28, 323.92L291.33, 321.41L291.51, 318.51L291.85, 315.28L292.35, 312"/><path stroke="black" fill="none" stroke-width="1" d="M319.39, 359.09L319.41, 359.35L319.46, 360.08L319.59, 361.62L319.79, 363.71L320.08, 366.18L320.47, 368.89L321.6, 374.42L322.35, 376.95L323.24, 379.12L324.51, 381.53L326.03, 384.05L327.92, 386.56L330.25, 388.94L333.11, 391.07L334.77, 392L336.6, 392.82L338.6, 393.52L340.79, 394.08L343.18, 394.49L345.78, 394.72L348.38, 394.77L350.76, 394.62L352.94, 394.31L354.92, 393.84L356.72, 393.22L358.35, 392.48L361.14, 390.68L363.36, 388.55L365.12, 386.22L366.48, 383.8L367.54, 381.43L368.4, 379.02L369.11, 376.48L370.12, 371.44L370.44, 369.15L370.66, 367.16L370.78, 365.57L370.82, 364.48L370.85, 363.87L370.92, 363.64L371.01, 363.85L371.08, 364.53L371.11, 365.74L371.06, 367.52L370.91, 369.91L370.62, 372.96L370.12, 376.42L369.3, 379.94L368.14, 383.44L366.58, 386.8L364.59, 389.94L362.12, 392.76L359.14, 395.15L357.44, 396.16L355.6, 397.03L353.63, 397.72L351.56, 398.19L349.41, 398.45L347.21, 398.52L342.74, 398.07L338.32, 396.91L334.13, 395.09L330.36, 392.67L328.69, 391.25L327.18, 389.7L325.88, 388.03L324.79, 386.25L323, 382.52L321.54, 378.76L320.37, 375.09L319.47, 371.59L318.81, 368.37L318.37, 365.53L318.12, 363.17L318.05, 361.4L318.04, 360.17L318.04, 359.33L318.07, 358.83L318.14, 358.59L318.53, 358.67L319.39, 359.09"/><path stroke="black" fill="none" stroke-width="1" d="M1082.21, 359.83L1082.11, 359.64L1081.81, 359.07L1081.36, 358.14L1080.79, 356.89L1080.11, 355.31L1079.36, 353.44L1078.58, 351.29L1077.78, 348.88L1077.01, 346.23L1076.29, 343.36L1075.65, 340.29L1075.12, 337.04L1074.73, 333.63L1074.51, 330.07L1074.5, 326.4L1074.71, 322.62L1135.33, 322.92L1135.33, 323.04L1135.34, 323.4L1135.35, 323.98L1135.36, 324.77L1135.33, 326.91L1135.24, 329.71L1135.05, 333.04L1134.71, 336.8L1134.21, 340.85L1133.49, 345.09L1132.54, 349.39L1131.3, 353.65L1129.75, 357.73L1127.86, 361.53L1125.59, 364.93L1122.89, 367.81L1121.38, 369.02L1119.75, 370.05L1118, 370.89L1116.12, 371.53L1115.85, 371.6L1115.07, 371.76L1113.84, 371.97L1112.22, 372.2L1110.25, 372.39L1108, 372.5L1105.53, 372.49L1102.88, 372.32L1100.12, 371.94L1097.29, 371.31L1094.46, 370.39L1091.69, 369.13L1089.02, 367.49L1086.51, 365.42L1084.22, 362.88L1082.21, 359.83"/><path stroke="black" fill="none" stroke-width="1" d="M1128.73, 314.21L1131.42, 314.51L1134.43, 314.73L1140.81, 315L1143.86, 315.06L1146.62, 315.1L1148.93, 315.11L1150.64, 315.11L1156.34, 315.11L1156.35, 315.25L1156.36, 315.65L1156.38, 316.3L1156.4, 317.19L1156.41, 318.29L1156.4, 319.6L1156.32, 322.77L1156.1, 326.57L1155.69, 330.89L1155.05, 335.6L1154.13, 340.58L1152.87, 345.72L1151.22, 350.88L1149.15, 355.96L1146.59, 360.82L1143.5, 365.35L1141.74, 367.45L1139.82, 369.43L1137.75, 371.26L1135.52, 372.93L1133.11, 374.43L1130.53, 375.74L1130.37, 375.79L1129.91, 375.96L1129.17, 376.21L1128.15, 376.53L1126.88, 376.91L1125.38, 377.33L1123.66, 377.78L1121.73, 378.23L1117.35, 379.08L1112.36, 379.77L1106.91, 380.16L1101.12, 380.12L1095.13, 379.53L1089.09, 378.24L1086.08, 377.3L1083.12, 376.13L1080.2, 374.73L1077.35, 373.08L1074.59, 371.15L1071.93, 368.94L1069.4, 366.42L1067, 363.59L1064.75, 360.42L1062.67, 356.89L1060.79, 353L1059.1, 348.73L1059.01, 348.38L1058.75, 347.37L1058.35, 345.75L1057.85, 343.6L1057.28, 340.95L1056.66, 337.87L1056.04, 334.41L1055.43, 330.64L1054.86, 326.61L1054.38, 322.38L1053.78, 313.53L1053.76, 312M1128.73, 314.21L1127.99, 314.14L1127.04, 314.07L1124.54, 313.99L1121.35, 313.96L1117.6, 313.97L1113.41, 314.02L1108.92, 314.1L1099.54, 314.32L1094.9, 314.46L1090.47, 314.59L1086.37, 314.72L1082.73, 314.84L1079.67, 314.95L1078.41, 315L1077.33, 315.04L1076.47, 315.07L1075.84, 315.09L1075.44, 315.11L1075.31, 315.11L1074.64, 312"/><path stroke="black" fill="none" stroke-width="1" d="M1079.46, 331.36L1079.48, 331.62L1079.53, 332.34L1079.65, 333.89L1079.86, 335.97L1080.15, 338.44L1080.54, 341.15L1081.67, 346.69L1082.42, 349.22L1083.31, 351.39L1084.57, 353.79L1086.1, 356.32L1087.99, 358.83L1090.32, 361.21L1093.18, 363.34L1094.84, 364.27L1096.67, 365.09L1098.67, 365.79L1100.86, 366.35L1103.25, 366.75L1105.85, 366.99L1108.44, 367.03L1110.83, 366.89L1113, 366.57L1114.99, 366.1L1116.79, 365.49L1118.42, 364.75L1121.21, 362.94L1123.43, 360.81L1125.18, 358.48L1126.55, 356.07L1127.61, 353.7L1128.47, 351.29L1129.18, 348.75L1130.19, 343.71L1130.51, 341.42L1130.72, 339.43L1130.85, 337.83L1130.88, 336.75L1130.92, 336.13L1130.99, 335.91L1131.08, 336.11L1131.15, 336.8L1131.18, 338.01L1131.13, 339.78L1130.98, 342.17L1130.69, 345.22L1130.19, 348.68L1129.37, 352.21L1128.21, 355.7L1126.65, 359.07L1124.65, 362.21L1122.19, 365.02L1119.21, 367.42L1117.51, 368.43L1115.67, 369.3L1113.7, 369.98L1111.63, 370.45L1109.48, 370.72L1107.28, 370.78L1102.8, 370.34L1098.38, 369.18L1094.2, 367.36L1090.43, 364.94L1088.75, 363.52L1087.25, 361.97L1085.94, 360.3L1084.85, 358.51L1083.07, 354.78L1081.61, 351.03L1080.44, 347.35L1079.53, 343.85L1078.88, 340.63L1078.44, 337.79L1078.19, 335.44L1078.11, 333.67L1078.11, 332.44L1078.11, 331.6L1078.13, 331.09L1078.21, 330.85L1078.6, 330.93L1079.46, 331.36"/><path stroke="black" fill="none" stroke-width="1" d="M681.13, 353.55L681.15, 353.82L681.04, 354.37L680.58, 354.83L680.15, 354.92L679.54, 354.85L678.94, 354.51L678.57, 353.87L678.43, 353.01L678.57, 352.04L678.98, 351.04L679.7, 350.1L680.75, 349.32L682.14, 348.79L685.42, 348.06L687.06, 347.82L688.62, 347.74L690.05, 347.89L691.26, 348.34L692.21, 349.15L692.83, 350.38L693.23, 352.09L693.59, 354.21L694.26, 359.03L694.61, 361.42L695, 363.6L695.46, 365.41L696.01, 366.7L696.42, 367.19L697.06, 367.68L698.87, 368.66L701.24, 369.59L703.95, 370.44L706.8, 371.17L709.58, 371.76L712.07, 372.16L714.07, 372.33L715.93, 372.49L718.1, 372.77L720.5, 373.06L723.04, 373.24L725.64, 373.18L728.22, 372.78L730.7, 371.91L732.98, 370.45L735.01, 368.58L736.74, 366.56L738.21, 364.44L739.43, 362.26L740.41, 360.06L741.17, 357.9L741.73, 355.81L742.09, 353.84L742.06, 354.04L741.96, 354.59L741.8, 355.45L741.57, 356.57L741.27, 357.92L740.9, 359.43L739.92, 362.8L738.62, 366.3L736.97, 369.57L736.01, 371L734.95, 372.23L733.8, 373.22L732.55, 373.92L731.14, 374.42L729.53, 374.82L725.84, 375.38L721.72, 375.62L717.42, 375.6L713.19, 375.34L709.27, 374.88L705.92, 374.25L704.53, 373.88L703.38, 373.49L701.44, 372.8L699.76, 372.3L698.31, 371.87L697.09, 371.43L696.09, 370.86L695.29, 370.08L694.69, 368.96L694.28, 367.42L693.51, 363.6L692.58, 359.71L692.09, 357.94L691.59, 356.39L691.12, 355.14L690.66, 354.28L689.5, 352.9L688.66, 352.3L687.63, 351.86L686.38, 351.68L684.9, 351.84L683.15, 352.44L681.13, 353.55"/><path stroke="black" fill="none" stroke-width="1" d="M745.16, 312L745.12, 319.03L744.79, 319.02L743.88, 319.01L742.55, 318.98L740.93, 318.94L737.44, 318.85L735.86, 318.8L734.58, 318.74L733.79, 318.69L732.57, 318.58L730.97, 318.43L729.05, 318.24L726.88, 318.01L724.52, 317.75L719.44, 317.17L714.33, 316.55L709.67, 315.92L707.66, 315.62L705.95, 315.34L704.6, 315.08L703.66, 314.84L702.05, 314.21L700.11, 313.18L698.4, 312"/><path stroke="black" fill="none" stroke-width="1" d="M765.18, 312L765.29, 355.32L764.99, 359.76L764.31, 363.71L763.32, 367.21L762.05, 370.26L760.58, 372.92L758.95, 375.19L757.21, 377.12L755.43, 378.72L753.65, 380.04L751.93, 381.08L750.33, 381.89L748.89, 382.49L747.68, 382.9L746.75, 383.17L746.15, 383.3L745.94, 383.34L740.58, 384.75L735.13, 385.76L729.65, 386.41L724.21, 386.73L718.86, 386.79L713.66, 386.61L708.68, 386.24L703.96, 385.73L699.58, 385.12L695.59, 384.45L692.05, 383.76L689.02, 383.1L686.56, 382.51L684.73, 382.04L683.58, 381.72L683.29, 381.64L683.19, 381.61L682.69, 353.83L682.94, 353.71L683.6, 353.43L684.56, 353.11L685.7, 352.87L686.9, 352.82L688.03, 353.1L688.98, 353.8L689.64, 355.07L689.99, 356.77L690.19, 358.67L690.48, 362.82L690.77, 364.96L691.28, 367.07L692.11, 369.08L693.36, 370.94L694.36, 371.8L695.83, 372.61L697.71, 373.37L699.94, 374.07L702.47, 374.71L705.23, 375.29L711.22, 376.24L717.44, 376.91L723.42, 377.25L726.18, 377.3L728.7, 377.26L730.92, 377.12L732.79, 376.89L734.4, 376.44L735.88, 375.65L737.23, 374.57L738.47, 373.23L739.58, 371.67L740.58, 369.92L742.25, 366.01L743.52, 361.79L744.41, 357.54L744.96, 353.55L745.2, 350.11L745.39, 346.84L745.69, 343.28L746, 339.62L746.19, 336.03L746.15, 332.7L745.75, 329.81L745.39, 328.58L744.9, 327.53L744.26, 326.68L743.46, 326.05L742.33, 325.61L740.74, 325.3L738.73, 325.09L736.34, 324.97L733.6, 324.9L730.56, 324.88L727.25, 324.86L723.71, 324.84L716.11, 324.68L708.06, 324.2L699.88, 323.23L695.83, 322.51L691.87, 321.59L688.16, 320.36L684.82, 318.77L681.85, 316.85L679.21, 314.66L676.89, 312.25L676.7, 312"/><path stroke="black" fill="none" stroke-width="1" d="M994.56, 312L994.6, 315.75L994.68, 324.27L994.78, 332.7L994.89, 340.8L994.99, 348.31L995.04, 351.78L995.09, 355.01L995.13, 357.98L995.17, 360.64L995.21, 362.99L995.24, 364.97L995.26, 366.57L995.28, 367.74L995.29, 368.47L995.3, 368.72L995.38, 368.96L995.57, 369.6L995.79, 370.52L995.95, 371.61L995.98, 372.76L995.79, 373.84L995.3, 374.75L994.43, 375.36L994.32, 375.37L994.01, 375.4L992.81, 375.48L990.92, 375.61L988.45, 375.77L985.47, 375.94L982.09, 376.11L978.4, 376.27L974.5, 376.41L966.42, 376.56L962.43, 376.55L958.6, 376.46L955.03, 376.28L951.8, 376L949.01, 375.6L946.77, 375.08L944.81, 374.3L942.84, 373.19L940.89, 371.75L938.95, 370.03L937.05, 368.04L935.2, 365.8L933.42, 363.35L931.71, 360.7L928.58, 354.93L925.92, 348.67L923.86, 342.13L922.5, 335.5L922.06, 331.96L921.74, 328.01L921.56, 323.7L921.51, 319.11L921.62, 314.3L921.75, 312"/><path stroke="black" fill="none" stroke-width="1" d="M1015.23, 312L1015.23, 454.52L1015.13, 454.52L1014.82, 454.54L1013.64, 454.58L1011.79, 454.65L1009.4, 454.74L1006.54, 454.84L1003.33, 454.95L996.27, 455.17L989.04, 455.37L985.61, 455.44L982.45, 455.5L979.65, 455.52L977.33, 455.52L975.57, 455.47L974.5, 455.39L973.18, 455.01L972.06, 454.38L971.11, 453.58L970.34, 452.71L969.76, 451.88L969.34, 451.16L969.09, 450.66L969.01, 450.48L968.64, 450.62L967.78, 450.76L966.82, 450.48L966.41, 450.03L966.12, 449.32L966.09, 448.36L966.4, 447.26L967.01, 446.1L967.89, 444.95L969, 443.9L970.31, 443.02L971.76, 442.4L973.34, 442.1L974.26, 442.06L975.37, 442.06L978.03, 442.16L981.07, 442.35L984.21, 442.6L987.21, 442.88L989.8, 443.15L990.85, 443.28L991.71, 443.39L992.34, 443.47L992.7, 443.54L993, 443.74L993.04, 444.07L992.84, 444.49L992.41, 444.95L991.76, 445.4L990.91, 445.78L989.87, 446.04L988.65, 446.14L986.33, 446.23L984.61, 446.43L983.54, 446.63L983.16, 446.72L985.46, 446.86L987.45, 446.89L989.14, 446.84L990.56, 446.72L991.74, 446.53L992.69, 446.3L994.02, 445.73L994.73, 445.11L995.01, 444.55L995.04, 444.14L995.01, 443.98L995.01, 443.83L995.02, 443.39L995.04, 442.69L995.06, 441.73L995.08, 440.54L995.11, 439.14L995.19, 435.77L995.27, 431.75L995.37, 427.24L995.47, 422.38L995.57, 417.31L995.76, 407.12L995.85, 402.3L995.92, 397.85L995.98, 393.91L996.02, 390.63L996.03, 389.28L996.03, 388.16L996.03, 387.27L996.02, 386.63L995.86, 384.92L995.51, 383.72L995.04, 382.96L994.52, 382.53L994.01, 382.36L993.56, 382.35L993.25, 382.4L993.13, 382.44L989.87, 383.56L986.37, 384.57L982.65, 385.45L978.75, 386.18L974.67, 386.74L970.43, 387.11L966.07, 387.26L961.59, 387.19L957.02, 386.87L952.37, 386.27L947.67, 385.37L942.94, 384.17L938.19, 382.63L933.46, 380.73L928.75, 378.46L924.09, 375.8L921.85, 374.29L919.76, 372.65L916, 369.02L912.78, 364.99L910.06, 360.67L907.78, 356.15L905.92, 351.52L904.43, 346.88L903.27, 342.32L902.4, 337.95L901.78, 333.84L901.36, 330.11L901.11, 326.84L900.99, 324.14L900.96, 322.09L900.96, 321.34L900.97, 320.79L900.97, 320.45L900.98, 320.33L900.95, 315.02L901.01, 312"/><path stroke="black" fill="none" stroke-width="1" d="M991.83, 371.9L992.54, 372.32L993.01, 372.72L993.25, 373.09L993.28, 373.45L992.76, 374.08L991.53, 374.64L989.69, 375.1L987.33, 375.49L984.55, 375.8L981.43, 376.03L974.58, 376.28L967.54, 376.27L964.18, 376.16L961.05, 376L958.25, 375.78L955.86, 375.51L951.74, 374.61L947.92, 373.11L944.4, 371L941.17, 368.31L938.22, 365.02L935.55, 361.15L933.15, 356.7L931.02, 351.68L930.1, 349.09L929.32, 346.66L928.69, 344.38L928.18, 342.25L927.48, 338.46L927.14, 335.32L927.04, 332.84L927.1, 331.04L927.21, 329.94L927.27, 329.58L927.35, 331.21L927.56, 333.01L928.29, 337.02L929.41, 341.42L930.88, 346.02L932.64, 350.65L934.66, 355.11L936.88, 359.22L939.25, 362.8L941.8, 365.7L944.5, 367.97L947.27, 369.68L950.02, 370.9L952.65, 371.73L955.1, 372.24L957.26, 372.51L959.04, 372.62L960.1, 372.64L961.65, 372.63L963.62, 372.61L965.93, 372.57L968.5, 372.52L971.26, 372.46L977.01, 372.31L982.56, 372.16L985.07, 372.09L987.3, 372.03L989.16, 371.98L990.59, 371.93L991.51, 371.91L991.83, 371.9"/><path stroke="black" fill="none" stroke-width="1" d="M1218.9, 367.42L1219.04, 364.39L1219.24, 364.41L1219.81, 364.48L1220.7, 364.59L1221.88, 364.74L1223.29, 364.92L1224.89, 365.12L1228.5, 365.58L1232.36, 366.08L1236.11, 366.58L1239.39, 367.04L1240.75, 367.24L1241.87, 367.42L1244.05, 367.73L1246.61, 367.99L1249.42, 368.15L1252.34, 368.18L1255.23, 368.03L1257.95, 367.66L1260.38, 367.04L1262.38, 366.12L1265.7, 363.93L1267.23, 362.7L1268.66, 361.28L1269.99, 359.59L1271.19, 357.55L1272.27, 355.08L1273.21, 352.11L1273.21, 352.27L1273.18, 352.72L1273.12, 353.42L1272.99, 354.34L1272.51, 356.69L1271.59, 359.48L1270.08, 362.39L1269.06, 363.81L1267.85, 365.15L1266.42, 366.38L1264.75, 367.45L1262.83, 368.34L1260.64, 369.01L1260.41, 369.06L1259.73, 369.2L1258.62, 369.39L1257.13, 369.63L1255.27, 369.89L1253.07, 370.14L1250.57, 370.37L1247.79, 370.54L1244.76, 370.65L1241.5, 370.65L1238.05, 370.54L1234.44, 370.29L1230.69, 369.87L1226.83, 369.27L1222.89, 368.46L1218.9, 367.42"/><path stroke="black" fill="none" stroke-width="1" d="M1216.23, 383.16L1216.44, 383.17L1216.44, 383.41L1216.42, 383.82L1216.35, 383.9L1216.3, 383.66L1216.23, 383.17"/><path stroke="black" fill="none" stroke-width="1" d="M1297.27, 312L1297.33, 349.51L1297.36, 349.89L1297.42, 350.97L1297.44, 352.65L1297.36, 354.85L1297.14, 357.46L1296.71, 360.4L1296.01, 363.57L1294.99, 366.88L1293.58, 370.23L1291.73, 373.53L1289.39, 376.69L1286.49, 379.61L1282.97, 382.2L1280.96, 383.35L1278.78, 384.37L1276.42, 385.27L1273.86, 386.02L1271.11, 386.63L1268.16, 387.07L1267.87, 387.06L1267.03, 387.02L1265.69, 386.94L1263.9, 386.81L1261.71, 386.6L1259.17, 386.31L1256.32, 385.92L1253.21, 385.42L1249.89, 384.79L1246.4, 384.03L1239.15, 382.01L1235.47, 380.73L1231.83, 379.26L1228.26, 377.57L1224.82, 375.65L1224.61, 375.48L1224.02, 375.02L1223.14, 374.38L1222.06, 373.69L1220.86, 373.04L1219.64, 372.55L1218.48, 372.32L1217.45, 372.48L1216.68, 373.08L1216.17, 374.05L1215.89, 375.31L1215.78, 376.76L1215.89, 379.81L1216.03, 381.23L1216.16, 382.44L1216.23, 383.16L1185.39, 383.02L1185.1, 384.03L1179.46, 384.18L1179.45, 384.03L1179.41, 383.65L1179.21, 382.43L1178.86, 381.07L1178.61, 380.51L1178.31, 380.13L1177.63, 379.78L1176.85, 379.68L1175.93, 379.66L1174.84, 379.55L1174.33, 379.23L1173.99, 378.56L1173.86, 377.64L1173.98, 376.59L1174.36, 375.51L1175.05, 374.52L1176.06, 373.71L1177.44, 373.2L1179.34, 372.89L1181.74, 372.61L1187.1, 372.15L1189.61, 371.98L1191.68, 371.86L1192.49, 371.81L1193.1, 371.78L1193.49, 371.76L1193.62, 371.75L1193.62, 373.78L1193.44, 373.83L1192.94, 374L1192.17, 374.26L1191.2, 374.59L1188.87, 375.42L1186.4, 376.38L1186.72, 376.36L1187.58, 376.31L1188.81, 376.23L1190.23, 376.14L1192.98, 375.95L1193.98, 375.87L1194.49, 375.8L1195.05, 375.64L1195.72, 375.04L1196.02, 374.43L1196.28, 373.52L1196.45, 372.27L1196.51, 370.6L1196.51, 369.82L1196.5, 368.48L1196.49, 366.59L1196.48, 364.21L1196.46, 361.38L1196.44, 358.12L1196.42, 354.49L1196.4, 350.52L1196.37, 346.25L1196.34, 341.72L1196.28, 332.04L1196.22, 321.79L1196.15, 312M1277.24, 312L1277.19, 322.24L1277.15, 329.37L1277.09, 335.98L1277.07, 339.02L1277.04, 341.86L1277, 344.46L1276.97, 346.81L1276.94, 348.87L1276.9, 350.63L1276.86, 352.05L1276.82, 353.12L1276.33, 356.57L1275.25, 359.84L1273.69, 362.86L1271.75, 365.58L1269.53, 367.93L1267.13, 369.86L1264.67, 371.3L1262.23, 372.19L1259.52, 372.61L1256.27, 372.75L1252.68, 372.67L1248.96, 372.46L1245.3, 372.18L1241.9, 371.92L1238.95, 371.75L1237.72, 371.73L1236.67, 371.75L1235.61, 371.76L1234.35, 371.68L1231.4, 371.29L1228.09, 370.69L1224.73, 369.98L1221.61, 369.26L1219.01, 368.63L1218.01, 368.37L1217.24, 368.17L1216.76, 368.04L1216.59, 368L1216.59, 367.71L1216.58, 366.86L1216.58, 365.49L1216.57, 363.63L1216.56, 361.33L1216.55, 358.62L1216.54, 355.53L1216.52, 352.1L1216.5, 348.37L1216.49, 344.37L1216.47, 340.14L1216.45, 335.72L1216.41, 326.45L1216.37, 316.85L1216.35, 312"/><path stroke="black" fill="none" stroke-width="1" d="M834.11, 312L833.91, 355.36L833.9, 355.58L833.91, 356.17L834, 357.06L834.24, 358.13L834.68, 359.3L835.38, 360.48L836.4, 361.56L837.81, 362.47L838.87, 362.9L840.36, 363.41L842.24, 363.97L844.41, 364.57L849.42, 365.86L854.83, 367.16L860.12, 368.36L862.54, 368.89L864.73, 369.36L866.62, 369.74L868.13, 370.04L869.2, 370.22L869.76, 370.29L870.42, 370.13L871.21, 369.68L872.06, 368.95L872.94, 367.95L873.77, 366.7L874.51, 365.22L875.1, 363.53L875.48, 361.63L875.86, 359.72L876.43, 357.96L877.15, 356.38L878, 355.02L878.92, 353.91L879.88, 353.06L880.84, 352.51L881.76, 352.29L882.54, 352.31L883.11, 352.44L883.77, 352.93L883.98, 353.44L883.99, 353.68L883.99, 387.31L883.74, 387.29L883.04, 387.22L881.96, 387.09L880.56, 386.91L878.92, 386.65L877.11, 386.31L873.25, 385.35L872.14, 385L870.75, 384.54L869.12, 383.95L867.28, 383.26L863.09, 381.58L858.43, 379.53L853.54, 377.15L848.69, 374.48L844.1, 371.58L840.04, 368.47L839.91, 368.36L839.54, 368.08L838.3, 367.22L836.75, 366.35L835.99, 366.07L835.3, 365.96L834.74, 366.05L834.29, 366.29L833.68, 367.18L833.36, 368.43L833.21, 369.87L833.18, 370.34L833.16, 371.02L833.13, 372.85L833.1, 375.1L833.09, 377.51L833.08, 379.82L833.07, 381.8L833.07, 383.17L833.07, 383.55L833.07, 383.68L800.98, 383.4L800.86, 383.44L800.54, 383.55L799.43, 383.85L797.98, 384.11L796.51, 384.1L796, 384.04L795.75, 384.04L795.75, 383.98L795.82, 383.79L795.85, 383.41L795.73, 382.79L795.4, 381.86L794.97, 380.92L794.6, 380.24L794.27, 379.8L793.95, 379.55L793.22, 379.45L792.19, 379.63L791.6, 379.62L791.12, 379.39L790.75, 378.98L790.53, 378.43L790.47, 377.76L790.6, 377.02L790.93, 376.24L791.49, 375.45L793.16, 374.02L795.34, 372.95L797.87, 372.33L800.56, 372.24L802.06, 372.24L803.75, 372.08L807.22, 371.63L808.76, 371.49L810.02, 371.51L810.86, 371.78L811.16, 372.38L810.94, 373.11L810.33, 373.75L809.43, 374.3L808.34, 374.78L805.98, 375.56L804.91, 375.87L804.05, 376.14L802.09, 376.84L802.48, 376.82L803.5, 376.75L804.97, 376.63L806.72, 376.44L810.28, 375.84L811.72, 375.41L812.7, 374.89L813.29, 374.05L813.72, 372.74L814, 371.07L814.16, 369.13L814.19, 364.84L813.95, 360.66L813.92, 359.96L813.88, 358.87L813.85, 357.4L813.82, 355.59L813.79, 353.46L813.76, 351.04L813.73, 348.36L813.71, 345.44L813.67, 339.02L813.64, 331.99L813.61, 324.58L813.59, 317L813.58, 312"/><path stroke="black" fill="none" stroke-width="1" d="M887.07, 353.68L885.94, 352.99L884.55, 351.92L882.75, 351.03L881.64, 350.83L880.37, 350.89L879.68, 351.13L878.99, 351.62L877.6, 353.19L876.24, 355.34L874.96, 357.8L873.8, 360.28L872.79, 362.51L871.99, 364.21L871.68, 364.78L871.44, 365.12L870.28, 365.83L868.42, 366.27L867.21, 366.4L865.81, 366.46L864.19, 366.45L862.37, 366.38L861.2, 366.29L859.68, 366.14L857.86, 365.93L855.81, 365.66L851.3, 364.96L846.65, 364.08L842.4, 363.03L840.57, 362.46L839.04, 361.87L837.86, 361.24L837.11, 360.6L836.84, 359.94L837.11, 359.26L837.22, 359.2L837.54, 359.03L838.72, 358.58L840.53, 358.26L841.63, 358.26L842.84, 358.42L843.64, 358.61L844.76, 358.9L846.15, 359.27L847.76, 359.7L851.45, 360.73L855.44, 361.86L859.35, 362.97L862.79, 363.94L864.21, 364.33L865.37, 364.65L866.21, 364.87L866.69, 364.98L867.9, 365.32L868.52, 365.44L869.14, 365.38L869.72, 365.06L870.27, 364.37L870.75, 363.22L871.16, 361.49L871.61, 359.36L872.24, 357.1L873.04, 354.82L874.04, 352.62L875.22, 350.59L876.59, 348.84L878.17, 347.46L879.95, 346.57L881.72, 346.16L883.28, 346.14L884.61, 346.44L885.74, 347L886.66, 347.75L887.37, 348.63L887.87, 349.55L888.18, 350.47L888.44, 352.03L888.36, 353.12L887.91, 353.69L887.07, 353.68"/></svg>